<?xml version="1.0" encoding="utf-8"?>
<!-- Generator: Adobe Illustrator 26.0.1, SVG Export Plug-In . SVG Version: 6.00 Build 0)  -->
<svg version="1.1" xmlns="http://www.w3.org/2000/svg" xmlns:xlink="http://www.w3.org/1999/xlink" x="0px" y="0px"
	 viewBox="0 0 1122 1122" enable-background="new 0 0 1122 1122" xml:space="preserve">
<g id="BG" display="none">
	<rect display="inline" fill="#E6E6E6" width="1122" height="1122"/>
</g>
<g id="Object">
	<g>
		<g>
			<rect x="564.44" y="8" fill="#FBB03B" width="7.71" height="59.45"/>
		</g>
		<g>
			<rect x="564.44" y="1017.95" fill="#FBB03B" width="7.71" height="59.45"/>
		</g>
		<g>
			
				<rect x="475.64" y="16.68" transform="matrix(0.9847 -0.1741 0.1741 0.9847 1.2635 83.8445)" fill="#EDBE7E" width="6.01" height="36.08"/>
		</g>
		<g>
			
				<rect x="654.94" y="1031.14" transform="matrix(0.9847 -0.174 0.174 0.9847 -172.5224 130.4886)" fill="#EDBE7E" width="6.01" height="36.08"/>
		</g>
		<g>
			<polygon fill="#EDBE7E" points="395.09,75.93 382.72,42.03 388.36,39.98 400.73,73.88 			"/>
		</g>
		<g>
			<polygon fill="#EDBE7E" points="748.23,1043.92 735.87,1010.02 741.51,1007.97 753.88,1041.87 			"/>
		</g>
		<g>
			<polygon fill="#EDBE7E" points="316.6,113.02 298.52,81.78 303.73,78.78 321.81,110.02 			"/>
		</g>
		<g>
			<polygon fill="#EDBE7E" points="832.87,1005.12 814.79,973.88 819.99,970.88 838.07,1002.12 			"/>
		</g>
		<g>
			<polygon fill="#EDBE7E" points="245.77,163.14 222.53,135.5 227.13,131.65 250.37,159.29 			"/>
		</g>
		<g>
			<polygon fill="#EDBE7E" points="909.47,952.25 886.23,924.62 890.83,920.76 914.07,948.4 			"/>
		</g>
		<g>
			<polygon fill="#EDBE7E" points="184.74,224.77 157.04,201.58 160.9,196.99 188.6,220.18 			"/>
		</g>
		<g>
			<polygon fill="#EDBE7E" points="975.7,886.91 948,863.72 951.86,859.13 979.56,882.32 			"/>
		</g>
		<g>
			<polygon fill="#EDBE7E" points="135.36,296.03 104.04,278 107.04,272.81 138.36,290.85 			"/>
		</g>
		<g>
			<polygon fill="#EDBE7E" points="1029.56,811.09 998.24,793.05 1001.25,787.86 1032.56,805.9 			"/>
		</g>
		<g>
			<polygon fill="#EDBE7E" points="99.13,374.77 65.15,362.44 67.21,356.81 101.19,369.14 			"/>
		</g>
		<g>
			<polygon fill="#EDBE7E" points="1069.4,727.09 1035.42,714.75 1037.47,709.12 1071.45,721.46 			"/>
		</g>
		<g>
			
				<rect x="56.88" y="434.43" transform="matrix(0.1731 -0.9849 0.9849 0.1731 -396.1656 433.1599)" fill="#EDBE7E" width="5.99" height="36.16"/>
		</g>
		<g>
			
				<rect x="1073.73" y="613.31" transform="matrix(0.1732 -0.9849 0.9849 0.1732 268.3799 1582.4728)" fill="#EDBE7E" width="5.99" height="36.16"/>
		</g>
		<g>
			<rect x="42.05" y="538.1" fill="#FBB03B" width="59.59" height="7.69"/>
		</g>
		<g>
			<rect x="1039.46" y="538.1" fill="#FBB03B" width="59.59" height="7.69"/>
		</g>
		<g>
			
				<rect x="41.8" y="628.39" transform="matrix(0.9848 -0.174 0.174 0.9848 -108.9251 20.0442)" fill="#EDBE7E" width="36.16" height="5.99"/>
		</g>
		<g>
			
				<rect x="1058.65" y="449.51" transform="matrix(0.9848 -0.174 0.174 0.9848 -62.3022 194.2117)" fill="#EDBE7E" width="36.16" height="5.99"/>
		</g>
		<g>
			<polygon fill="#EDBE7E" points="67.21,727.09 65.16,721.46 99.13,709.12 101.19,714.75 			"/>
		</g>
		<g>
			<polygon fill="#EDBE7E" points="1037.47,374.77 1035.42,369.14 1069.4,356.8 1071.45,362.43 			"/>
		</g>
		<g>
			<polygon fill="#EDBE7E" points="107.05,811.09 104.04,805.9 135.36,787.86 138.36,793.05 			"/>
		</g>
		<g>
			<polygon fill="#EDBE7E" points="1001.25,296.03 998.24,290.84 1029.56,272.8 1032.56,277.99 			"/>
		</g>
		<g>
			<polygon fill="#EDBE7E" points="160.9,886.9 157.04,882.31 184.74,859.13 188.6,863.72 			"/>
		</g>
		<g>
			<polygon fill="#EDBE7E" points="951.87,224.76 948.01,220.17 975.71,196.98 979.57,201.57 			"/>
		</g>
		<g>
			<polygon fill="#EDBE7E" points="227.13,952.24 222.53,948.39 245.77,920.75 250.38,924.6 			"/>
		</g>
		<g>
			<polygon fill="#EDBE7E" points="890.83,163.13 886.23,159.28 909.47,131.64 914.07,135.5 			"/>
		</g>
		<g>
			<polygon fill="#EDBE7E" points="303.73,1005.11 298.53,1002.12 316.61,970.87 321.81,973.87 			"/>
		</g>
		<g>
			<polygon fill="#EDBE7E" points="820,113.01 814.8,110.01 832.87,78.77 838.07,81.77 			"/>
		</g>
		<g>
			<polygon fill="#EDBE7E" points="388.37,1043.91 382.72,1041.86 395.09,1007.96 400.73,1010.01 			"/>
		</g>
		<g>
			<polygon fill="#EDBE7E" points="741.51,75.92 735.87,73.87 748.23,39.98 753.88,42.03 			"/>
		</g>
		<g>
			
				<rect x="460.61" y="1046.17" transform="matrix(0.1732 -0.9849 0.9849 0.1732 -637.5565 1338.8997)" fill="#EDBE7E" width="36.08" height="6.01"/>
		</g>
		<g>
			
				<rect x="639.91" y="31.71" transform="matrix(0.1732 -0.9849 0.9849 0.1732 509.8173 676.7063)" fill="#EDBE7E" width="36.08" height="6.01"/>
		</g>
	</g>
	<g>
		<g>
			
				<rect x="549.2" y="24.28" transform="matrix(0.9994 -0.0349 0.0349 0.9994 -0.8228 19.2185)" fill="#BCBCED" width="2.57" height="17.83"/>
		</g>
		<g>
			
				<rect x="584.82" y="1041.79" transform="matrix(0.9994 -0.035 0.035 0.9994 -36.4167 21.1582)" fill="#BCBCED" width="2.57" height="17.83"/>
		</g>
		<g>
			
				<rect x="531.42" y="25.21" transform="matrix(0.9976 -0.0698 0.0698 0.9976 -1.0826 37.2849)" fill="#BCBCED" width="2.57" height="17.83"/>
		</g>
		<g>
			
				<rect x="602.6" y="1040.86" transform="matrix(0.9976 -0.0699 0.0699 0.9976 -71.8793 44.7643)" fill="#BCBCED" width="2.57" height="17.83"/>
		</g>
		<g>
			
				<rect x="513.67" y="26.76" transform="matrix(0.9945 -0.1046 0.1046 0.9945 -0.9061 54.0803)" fill="#BCBCED" width="2.57" height="17.83"/>
		</g>
		<g>
			
				<rect x="620.35" y="1039.31" transform="matrix(0.9945 -0.1047 0.1047 0.9945 -106.3698 70.8738)" fill="#BCBCED" width="2.57" height="17.83"/>
		</g>
		<g>
			
				<rect x="496" y="28.93" transform="matrix(0.9902 -0.1394 0.1394 0.9902 -0.4207 69.6718)" fill="#BCBCED" width="2.57" height="17.82"/>
		</g>
		<g>
			
				<rect x="638.02" y="1037.14" transform="matrix(0.9902 -0.1395 0.1395 0.9902 -139.6815 99.4182)" fill="#BCBCED" width="2.57" height="17.83"/>
		</g>
		<g>
			<polygon fill="#BCBCED" points="462.81,52.99 459.09,35.56 461.61,35.02 465.32,52.46 			"/>
		</g>
		<g>
			
				<rect x="673.1" y="1030.98" transform="matrix(0.978 -0.2084 0.2084 0.978 -201.91 163.3786)" fill="#BCBCED" width="2.57" height="17.83"/>
		</g>
		<g>
			<polygon fill="#BCBCED" points="445.77,56.96 441.45,39.67 443.94,39.05 448.26,56.34 			"/>
		</g>
		<g>
			<polygon fill="#BCBCED" points="692.65,1044.85 688.33,1027.55 690.82,1026.93 695.15,1044.23 			"/>
		</g>
		<g>
			<polygon fill="#BCBCED" points="428.88,61.53 423.95,44.39 426.42,43.68 431.35,60.82 			"/>
		</g>
		<g>
			<polygon fill="#BCBCED" points="710.17,1040.22 705.24,1023.08 707.72,1022.37 712.64,1039.51 			"/>
		</g>
		<g>
			<polygon fill="#BCBCED" points="412.15,66.68 406.64,49.72 409.08,48.93 414.6,65.88 			"/>
		</g>
		<g>
			<polygon fill="#BCBCED" points="727.52,1034.97 721.99,1018.02 724.44,1017.22 729.96,1034.18 			"/>
		</g>
		<g>
			<polygon fill="#BCBCED" points="379.31,78.7 372.61,62.17 375,61.21 381.69,77.74 			"/>
		</g>
		<g>
			<polygon fill="#BCBCED" points="761.6,1022.69 754.91,1006.16 757.29,1005.2 763.98,1021.73 			"/>
		</g>
		<g>
			<polygon fill="#BCBCED" points="363.21,85.56 355.95,69.28 358.3,68.24 365.56,84.52 			"/>
		</g>
		<g>
			<polygon fill="#BCBCED" points="778.3,1015.67 771.03,999.38 773.38,998.34 780.65,1014.62 			"/>
		</g>
		<g>
			<polygon fill="#BCBCED" points="347.37,92.98 339.54,76.96 341.85,75.84 349.68,91.86 			"/>
		</g>
		<g>
			<polygon fill="#BCBCED" points="794.74,1008.07 786.91,992.04 789.22,990.92 797.06,1006.94 			"/>
		</g>
		<g>
			<polygon fill="#BCBCED" points="331.8,100.95 323.42,85.21 325.69,84 334.07,99.74 			"/>
		</g>
		<g>
			<polygon fill="#BCBCED" points="810.91,999.9 802.52,984.16 804.79,982.95 813.18,998.69 			"/>
		</g>
		<g>
			<polygon fill="#BCBCED" points="301.55,118.48 292.08,103.36 294.26,102 303.73,117.12 			"/>
		</g>
		<g>
			<polygon fill="#BCBCED" points="842.34,981.9 832.87,966.78 835.05,965.42 844.52,980.54 			"/>
		</g>
		<g>
			<polygon fill="#BCBCED" points="286.89,128.02 276.9,113.25 279.04,111.81 289.02,126.59 			"/>
		</g>
		<g>
			<polygon fill="#BCBCED" points="857.57,972.09 847.57,957.31 849.7,955.88 859.7,970.66 			"/>
		</g>
		<g>
			<polygon fill="#BCBCED" points="272.58,138.07 262.09,123.65 264.16,122.15 274.66,136.57 			"/>
		</g>
		<g>
			<polygon fill="#BCBCED" points="872.44,961.76 861.93,947.33 864.01,945.83 874.51,960.25 			"/>
		</g>
		<g>
			<polygon fill="#BCBCED" points="258.64,148.61 247.64,134.57 249.66,132.99 260.66,147.04 			"/>
		</g>
		<g>
			<polygon fill="#BCBCED" points="886.94,950.91 875.93,936.86 877.96,935.28 888.96,949.33 			"/>
		</g>
		<g>
			<polygon fill="#BCBCED" points="231.89,171.12 219.93,157.87 221.85,156.16 233.8,169.41 			"/>
		</g>
		<g>
			<polygon fill="#BCBCED" points="914.76,927.74 902.8,914.49 904.71,912.78 916.67,926.02 			"/>
		</g>
		<g>
			<polygon fill="#BCBCED" points="219.12,183.06 206.71,170.24 208.56,168.46 220.97,181.28 			"/>
		</g>
		<g>
			<polygon fill="#BCBCED" points="928.04,915.44 915.63,902.62 917.48,900.84 929.89,913.66 			"/>
		</g>
		<g>
			<polygon fill="#BCBCED" points="206.78,195.44 193.93,183.06 195.72,181.21 208.56,193.6 			"/>
		</g>
		<g>
			<polygon fill="#BCBCED" points="940.89,902.69 928.03,890.31 929.82,888.46 942.67,900.85 			"/>
		</g>
		<g>
			<polygon fill="#BCBCED" points="194.88,208.24 181.6,196.31 183.32,194.4 196.6,206.33 			"/>
		</g>
		<g>
			<polygon fill="#BCBCED" points="953.27,889.5 940,877.57 941.72,875.66 954.99,887.59 			"/>
		</g>
		<g>
			<polygon fill="#BCBCED" points="172.46,235.04 158.38,224.06 159.96,222.04 174.04,233.02 			"/>
		</g>
		<g>
			<polygon fill="#BCBCED" points="976.65,861.86 962.56,850.88 964.14,848.86 978.23,859.84 			"/>
		</g>
		<g>
			<polygon fill="#BCBCED" points="161.96,249 147.51,238.53 149.02,236.45 163.47,246.93 			"/>
		</g>
		<g>
			<polygon fill="#BCBCED" points="987.58,847.45 973.13,836.97 974.64,834.89 989.1,845.37 			"/>
		</g>
		<g>
			<polygon fill="#BCBCED" points="151.96,263.33 137.15,253.36 138.59,251.24 153.4,261.21 			"/>
		</g>
		<g>
			<polygon fill="#BCBCED" points="998.02,832.66 983.2,822.7 984.64,820.57 999.46,830.53 			"/>
		</g>
		<g>
			<polygon fill="#BCBCED" points="142.47,278 127.32,268.55 128.68,266.38 143.83,275.83 			"/>
		</g>
		<g>
			<polygon fill="#BCBCED" points="1007.92,817.52 992.77,808.08 994.13,805.9 1009.29,815.35 			"/>
		</g>
		<g>
			<polygon fill="#BCBCED" points="125.05,308.28 109.28,299.91 110.48,297.64 126.26,306.01 			"/>
		</g>
		<g>
			<polygon fill="#BCBCED" points="1026.12,786.26 1010.34,777.89 1011.55,775.62 1027.33,783.99 			"/>
		</g>
		<g>
			<polygon fill="#BCBCED" points="117.15,323.85 101.09,316.03 102.22,313.73 118.27,321.55 			"/>
		</g>
		<g>
			<polygon fill="#BCBCED" points="1034.39,770.17 1018.33,762.35 1019.46,760.05 1035.52,767.86 			"/>
		</g>
		<g>
			<polygon fill="#BCBCED" points="109.79,339.69 93.47,332.44 94.52,330.1 110.84,337.35 			"/>
		</g>
		<g>
			<polygon fill="#BCBCED" points="1042.09,753.8 1025.77,746.55 1026.81,744.21 1043.14,751.46 			"/>
		</g>
		<g>
			<polygon fill="#BCBCED" points="102.99,355.78 86.43,349.1 87.39,346.72 103.96,353.4 			"/>
		</g>
		<g>
			<polygon fill="#BCBCED" points="1049.21,737.18 1032.64,730.49 1033.61,728.12 1050.17,734.8 			"/>
		</g>
		<g>
			<polygon fill="#BCBCED" points="91.11,388.61 74.12,383.1 74.92,380.66 91.91,386.18 			"/>
		</g>
		<g>
			<polygon fill="#BCBCED" points="1061.69,703.23 1044.7,697.72 1045.49,695.28 1062.49,700.79 			"/>
		</g>
		<g>
			<polygon fill="#BCBCED" points="86.04,405.32 68.87,400.41 69.57,397.94 86.75,402.86 			"/>
		</g>
		<g>
			
				<rect x="1057.52" y="673.33" transform="matrix(0.2752 -0.9614 0.9614 0.2752 111.5037 1512.4276)" fill="#BCBCED" width="2.56" height="17.87"/>
		</g>
		<g>
			
				<rect x="71.92" y="409.86" transform="matrix(0.2415 -0.9704 0.9704 0.2415 -350.8787 388.6932)" fill="#BCBCED" width="2.56" height="17.86"/>
		</g>
		<g>
			<polygon fill="#BCBCED" points="1071.77,668.5 1054.43,664.19 1055.05,661.7 1072.39,666.01 			"/>
		</g>
		<g>
			
				<rect x="67.91" y="427.18" transform="matrix(0.2077 -0.9782 0.9782 0.2077 -371.7816 413.2066)" fill="#BCBCED" width="2.57" height="17.86"/>
		</g>
		<g>
			<polygon fill="#BCBCED" points="1075.88,650.9 1058.4,647.19 1058.94,644.68 1076.42,648.39 			"/>
		</g>
		<g>
			
				<rect x="61.72" y="462.17" transform="matrix(0.1389 -0.9903 0.9903 0.1389 -412.2799 468.0647)" fill="#BCBCED" width="2.56" height="17.87"/>
		</g>
		<g>
			
				<rect x="1072.32" y="603.86" transform="matrix(0.1389 -0.9903 0.9903 0.1389 317.6254 1590.8721)" fill="#BCBCED" width="2.56" height="17.87"/>
		</g>
		<g>
			
				<rect x="59.55" y="479.8" transform="matrix(0.1045 -0.9945 0.9945 0.1045 -431.5834 498.1542)" fill="#BCBCED" width="2.56" height="17.87"/>
		</g>
		<g>
			
				<rect x="1074.49" y="586.22" transform="matrix(0.1045 -0.9945 0.9945 0.1045 371.4302 1602.8281)" fill="#BCBCED" width="2.56" height="17.87"/>
		</g>
		<g>
			
				<rect x="58" y="497.51" transform="matrix(0.0697 -0.9976 0.9976 0.0697 -450.0549 530.2886)" fill="#BCBCED" width="2.56" height="17.87"/>
		</g>
		<g>
			
				<rect x="1076.04" y="568.52" transform="matrix(0.0695 -0.9976 0.9976 0.0695 426.4251 1612.0659)" fill="#BCBCED" width="2.56" height="17.87"/>
		</g>
		<g>
			
				<rect x="57.07" y="515.25" transform="matrix(0.035 -0.9994 0.9994 0.035 -467.5542 564.1271)" fill="#BCBCED" width="2.56" height="17.87"/>
		</g>
		<g>
			
				<rect x="1076.97" y="550.78" transform="matrix(0.0348 -0.9994 0.9994 0.0348 481.3178 1617.8153)" fill="#BCBCED" width="2.56" height="17.87"/>
		</g>
		<g>
			
				<rect x="49.42" y="558.43" transform="matrix(0.9994 -0.0349 0.0349 0.9994 -19.4961 2.3771)" fill="#BCBCED" width="17.87" height="2.56"/>
		</g>
		<g>
			
				<rect x="1069.32" y="522.9" transform="matrix(0.9994 -0.0349 0.0349 0.9994 -17.635 37.9458)" fill="#BCBCED" width="17.87" height="2.56"/>
		</g>
		<g>
			
				<rect x="50.35" y="576.18" transform="matrix(0.9976 -0.0697 0.0697 0.9976 -40.1185 5.5389)" fill="#BCBCED" width="17.87" height="2.56"/>
		</g>
		<g>
			
				<rect x="1068.38" y="505.15" transform="matrix(0.9976 -0.0697 0.0697 0.9976 -32.6891 76.3479)" fill="#BCBCED" width="17.87" height="2.56"/>
		</g>
		<g>
			
				<rect x="51.9" y="593.88" transform="matrix(0.9945 -0.1046 0.1046 0.9945 -61.948 9.6342)" fill="#BCBCED" width="17.86" height="2.56"/>
		</g>
		<g>
			
				<rect x="1066.84" y="487.46" transform="matrix(0.9945 -0.1052 0.1052 0.9945 -45.4355 115.8521)" fill="#BCBCED" width="17.87" height="2.56"/>
		</g>
		<g>
			
				<rect x="54.07" y="611.51" transform="matrix(0.9902 -0.1395 0.1395 0.9902 -84.8807 14.7843)" fill="#BCBCED" width="17.87" height="2.56"/>
		</g>
		<g>
			
				<rect x="1064.66" y="469.82" transform="matrix(0.9902 -0.1395 0.1395 0.9902 -55.227 154.3954)" fill="#BCBCED" width="17.87" height="2.56"/>
		</g>
		<g>
			<polygon fill="#BCBCED" points="60.72,650.89 60.18,648.38 77.66,644.68 78.2,647.19 			"/>
		</g>
		<g>
			<polygon fill="#BCBCED" points="1058.94,439.21 1058.41,436.7 1075.89,433 1076.42,435.51 			"/>
		</g>
		<g>
			
				<rect x="64.27" y="663.82" transform="matrix(0.9702 -0.2424 0.2424 0.9702 -159.0537 37.585)" fill="#BCBCED" width="17.87" height="2.56"/>
		</g>
		<g>
			<polygon fill="#BCBCED" points="1055.05,422.19 1054.43,419.7 1071.77,415.39 1072.39,417.88 			"/>
		</g>
		<g>
			<polygon fill="#BCBCED" points="69.57,685.95 68.87,683.49 86.04,678.57 86.75,681.04 			"/>
		</g>
		<g>
			<polygon fill="#BCBCED" points="1050.57,405.32 1049.86,402.86 1067.04,397.94 1067.74,400.4 			"/>
		</g>
		<g>
			<polygon fill="#BCBCED" points="74.92,703.23 74.12,700.79 91.12,695.28 91.91,697.72 			"/>
		</g>
		<g>
			<polygon fill="#BCBCED" points="1045.49,388.61 1044.7,386.17 1061.69,380.66 1062.48,383.1 			"/>
		</g>
		<g>
			<polygon fill="#BCBCED" points="87.39,737.17 86.43,734.8 103,728.12 103.96,730.49 			"/>
		</g>
		<g>
			<polygon fill="#BCBCED" points="1033.61,355.77 1032.64,353.4 1049.21,346.72 1050.18,349.1 			"/>
		</g>
		<g>
			<polygon fill="#BCBCED" points="94.52,753.8 93.47,751.46 109.8,744.2 110.84,746.55 			"/>
		</g>
		<g>
			<polygon fill="#BCBCED" points="1026.81,339.69 1025.77,337.34 1042.09,330.1 1043.14,332.44 			"/>
		</g>
		<g>
			<polygon fill="#BCBCED" points="102.22,770.17 101.09,767.86 117.15,760.05 118.28,762.35 			"/>
		</g>
		<g>
			<polygon fill="#BCBCED" points="1019.46,323.85 1018.33,321.54 1034.39,313.73 1035.52,316.03 			"/>
		</g>
		<g>
			<polygon fill="#BCBCED" points="110.49,786.25 109.28,783.99 125.05,775.62 126.26,777.89 			"/>
		</g>
		<g>
			<polygon fill="#BCBCED" points="1011.55,308.27 1010.35,306.01 1026.12,297.64 1027.33,299.9 			"/>
		</g>
		<g>
			<polygon fill="#BCBCED" points="128.68,817.52 127.32,815.34 142.47,805.9 143.84,808.07 			"/>
		</g>
		<g>
			<polygon fill="#BCBCED" points="994.13,277.99 992.77,275.82 1007.93,266.37 1009.29,268.54 			"/>
		</g>
		<g>
			<polygon fill="#BCBCED" points="138.59,832.66 137.15,830.53 151.96,820.57 153.4,822.69 			"/>
		</g>
		<g>
			<polygon fill="#BCBCED" points="984.64,263.33 983.2,261.2 998.02,251.23 999.46,253.36 			"/>
		</g>
		<g>
			<polygon fill="#BCBCED" points="149.02,847.44 147.51,845.37 161.97,834.89 163.48,836.96 			"/>
		</g>
		<g>
			<polygon fill="#BCBCED" points="974.64,249 973.13,246.93 987.59,236.45 989.1,238.52 			"/>
		</g>
		<g>
			<polygon fill="#BCBCED" points="159.96,861.85 158.38,859.83 172.46,848.86 174.04,850.88 			"/>
		</g>
		<g>
			<polygon fill="#BCBCED" points="964.15,235.03 962.56,233.01 976.64,222.04 978.22,224.06 			"/>
		</g>
		<g>
			<polygon fill="#BCBCED" points="183.32,889.49 181.6,887.59 194.88,875.66 196.6,877.56 			"/>
		</g>
		<g>
			<polygon fill="#BCBCED" points="941.72,208.23 940,206.33 953.28,194.4 955,196.3 			"/>
		</g>
		<g>
			<polygon fill="#BCBCED" points="195.72,902.68 193.93,900.84 206.79,888.46 208.57,890.3 			"/>
		</g>
		<g>
			<polygon fill="#BCBCED" points="929.81,195.43 928.03,193.59 940.89,181.2 942.68,183.05 			"/>
		</g>
		<g>
			<polygon fill="#BCBCED" points="208.56,915.44 206.71,913.65 219.13,900.83 220.98,902.61 			"/>
		</g>
		<g>
			<polygon fill="#BCBCED" points="917.48,183.06 915.63,181.28 928.04,168.45 929.89,170.23 			"/>
		</g>
		<g>
			<polygon fill="#BCBCED" points="221.85,927.73 219.94,926.02 231.89,912.77 233.81,914.49 			"/>
		</g>
		<g>
			<polygon fill="#BCBCED" points="904.71,171.12 902.8,169.4 914.76,156.16 916.67,157.87 			"/>
		</g>
		<g>
			<polygon fill="#BCBCED" points="249.67,950.9 247.64,949.33 258.64,935.28 260.67,936.85 			"/>
		</g>
		<g>
			<polygon fill="#BCBCED" points="877.96,148.61 875.94,147.03 886.94,132.98 888.96,134.56 			"/>
		</g>
		<g>
			<polygon fill="#BCBCED" points="264.17,961.75 262.09,960.24 272.59,945.82 274.67,947.33 			"/>
		</g>
		<g>
			<polygon fill="#BCBCED" points="864.01,138.07 861.93,136.56 872.44,122.14 874.52,123.65 			"/>
		</g>
		<g>
			<polygon fill="#BCBCED" points="279.04,972.08 276.91,970.65 286.9,955.87 289.03,957.31 			"/>
		</g>
		<g>
			<polygon fill="#BCBCED" points="849.71,128.02 847.58,126.59 857.57,111.8 859.7,113.24 			"/>
		</g>
		<g>
			<polygon fill="#BCBCED" points="294.26,981.89 292.08,980.53 301.55,965.42 303.73,966.78 			"/>
		</g>
		<g>
			<polygon fill="#BCBCED" points="835.05,118.47 832.87,117.11 842.34,102 844.52,103.36 			"/>
		</g>
		<g>
			<polygon fill="#BCBCED" points="325.69,999.89 323.42,998.69 331.81,982.94 334.08,984.15 			"/>
		</g>
		<g>
			<polygon fill="#BCBCED" points="804.8,100.94 802.53,99.74 810.91,83.99 813.18,85.2 			"/>
		</g>
		<g>
			<polygon fill="#BCBCED" points="341.86,1008.06 339.55,1006.93 347.38,990.91 349.69,992.04 			"/>
		</g>
		<g>
			<polygon fill="#BCBCED" points="789.22,92.98 786.91,91.85 794.75,75.82 797.06,76.95 			"/>
		</g>
		<g>
			<polygon fill="#BCBCED" points="358.3,1015.66 355.95,1014.62 363.22,998.33 365.57,999.38 			"/>
		</g>
		<g>
			<polygon fill="#BCBCED" points="773.39,85.55 771.04,84.51 778.31,68.22 780.65,69.27 			"/>
		</g>
		<g>
			<polygon fill="#BCBCED" points="375,1022.68 372.62,1021.72 379.31,1005.2 381.69,1006.16 			"/>
		</g>
		<g>
			<polygon fill="#BCBCED" points="757.29,78.69 754.91,77.73 761.6,61.21 763.99,62.17 			"/>
		</g>
		<g>
			<polygon fill="#BCBCED" points="409.08,1034.97 406.64,1034.17 412.16,1017.21 414.61,1018.01 			"/>
		</g>
		<g>
			<polygon fill="#BCBCED" points="724.44,66.67 722,65.87 727.52,48.92 729.96,49.71 			"/>
		</g>
		<g>
			<polygon fill="#BCBCED" points="426.43,1040.21 423.96,1039.5 428.88,1022.37 431.35,1023.07 			"/>
		</g>
		<g>
			<polygon fill="#BCBCED" points="707.72,61.52 705.25,60.82 710.18,43.68 712.65,44.38 			"/>
		</g>
		<g>
			<polygon fill="#BCBCED" points="443.94,1044.84 441.45,1044.22 445.77,1026.93 448.27,1027.55 			"/>
		</g>
		<g>
			<polygon fill="#BCBCED" points="690.83,56.96 688.34,56.34 692.66,39.04 695.16,39.66 			"/>
		</g>
		<g>
			
				<rect x="453.3" y="1038.59" transform="matrix(0.2077 -0.9782 0.9782 0.2077 -650.9893 1276.0381)" fill="#BCBCED" width="17.83" height="2.57"/>
		</g>
		<g>
			<polygon fill="#BCBCED" points="673.79,52.99 671.27,52.45 674.99,35.02 677.51,35.56 			"/>
		</g>
		<g>
			
				<rect x="488.37" y="1044.77" transform="matrix(0.1389 -0.9903 0.9903 0.1389 -607.7018 1393.2074)" fill="#BCBCED" width="17.83" height="2.57"/>
		</g>
		<g>
			
				<rect x="630.4" y="36.55" transform="matrix(0.1389 -0.9903 0.9903 0.1389 513.0414 665.6937)" fill="#BCBCED" width="17.83" height="2.57"/>
		</g>
		<g>
			
				<rect x="506.05" y="1046.93" transform="matrix(0.1042 -0.9946 0.9946 0.1042 -581.1984 1451.1741)" fill="#BCBCED" width="17.83" height="2.57"/>
		</g>
		<g>
			
				<rect x="612.72" y="34.38" transform="matrix(0.1042 -0.9946 0.9946 0.1042 521.3987 650.2055)" fill="#BCBCED" width="17.83" height="2.57"/>
		</g>
		<g>
			
				<rect x="523.8" y="1048.48" transform="matrix(0.0694 -0.9976 0.9976 0.0694 -551.517 1508.2863)" fill="#BCBCED" width="17.83" height="2.57"/>
		</g>
		<g>
			
				<rect x="594.98" y="32.83" transform="matrix(0.0694 -0.9976 0.9976 0.0694 527.9243 634.1842)" fill="#BCBCED" width="17.83" height="2.57"/>
		</g>
		<g>
			
				<rect x="541.58" y="1049.41" transform="matrix(0.0348 -0.9994 0.9994 0.0348 -518.6984 1564.3396)" fill="#BCBCED" width="17.82" height="2.57"/>
		</g>
		<g>
			
				<rect x="577.19" y="31.9" transform="matrix(0.0353 -0.9994 0.9994 0.0353 532.2604 617.7615)" fill="#BCBCED" width="17.82" height="2.57"/>
		</g>
	</g>
	<path fill="#FBB03B" d="M1017.47,543.24h-12.98v12.01h14.47v3.61h-18.78v-33.32h18.04v3.61h-13.73v10.53h12.98V543.24z"/>
	<path fill="#FBB03B" d="M1019.85,559.76h-20.57v-35.11h19.83v5.39h-13.73v8.75h12.98v5.34h-12.98v10.23h14.47V559.76z
		 M1001.07,557.97h16.99v-1.83h-14.47v-13.8h12.98v-1.78h-12.98v-12.31h13.73v-1.83h-16.25V557.97z"/>
	<path fill="#FBB03B" d="M553.3,127.21V88.33h5.49L571.29,108c2.89,4.56,5.15,8.65,6.99,12.63l0.12-0.06
		c-0.46-5.19-0.58-9.92-0.58-15.98V88.33h4.74v38.87h-5.09l-12.37-19.73c-2.72-4.33-5.32-8.77-7.28-12.98l-0.17,0.06
		c0.29,4.9,0.4,9.58,0.4,16.03v16.61H553.3z"/>
	<path fill="#FBB03B" d="M583.6,128.25h-6.71l-12.68-20.21c-2.14-3.41-3.88-6.37-5.32-9.05c0.13,3.44,0.19,7.07,0.19,11.61v17.65
		h-6.83V87.29h7.11l12.8,20.15c1.83,2.88,3.43,5.63,4.85,8.3c-0.19-3.62-0.24-7.19-0.24-11.14V87.29h6.83V128.25z M578.05,126.17
		h3.47V89.37h-2.65v15.22c0,5.67,0.1,10.54,0.57,15.89l0.06,0.71l-1.71,0.84l-0.45-0.97c-1.86-4-4.12-8.09-6.93-12.51l-12.18-19.18
		h-3.88v36.79H557V110.6c0-6.49-0.12-11.12-0.4-15.97l-0.05-0.79l1.81-0.61l0.4,0.85c1.69,3.63,3.99,7.72,7.22,12.87L578.05,126.17z
		"/>
	<path fill="#FBB03B" d="M561.79,990.01c1.81,1.15,4.45,2.12,7.22,2.12c4.12,0,6.53-2.26,6.53-5.54c0-3.03-1.67-4.77-5.88-6.45
		c-5.1-1.88-8.24-4.62-8.24-9.19c0-5.05,4.03-8.81,10.1-8.81c3.2,0,5.51,0.77,6.9,1.59l-1.11,3.42c-1.02-0.58-3.1-1.54-5.93-1.54
		c-4.26,0-5.88,2.65-5.88,4.86c0,3.03,1.9,4.53,6.21,6.26c5.28,2.12,7.97,4.76,7.97,9.53c0,5.01-3.57,9.34-10.93,9.34
		c-3.01,0-6.3-0.92-7.97-2.07L561.79,990.01z"/>
	<path fill="#FBB03B" d="M568.74,996.47c-3.08,0-6.55-0.91-8.43-2.22l-0.52-0.36l1.51-5.21l0.92,0.59c1.95,1.25,4.49,1.99,6.79,1.99
		c3.51,0,5.7-1.79,5.7-4.67c0-2.22-0.87-3.85-5.35-5.64c-5.9-2.17-8.78-5.45-8.78-10c0-5.7,4.5-9.68,10.93-9.68
		c3.85,0,6.23,1.07,7.31,1.7l0.6,0.35l-1.65,5.08l-0.87-0.49c-1.16-0.65-3.05-1.43-5.53-1.43c-3.73,0-5.05,2.15-5.05,3.99
		c0,2.4,1.38,3.72,5.67,5.45c5.96,2.39,8.5,5.48,8.5,10.34C580.5,990.97,577.42,996.47,568.74,996.47z M561.76,993.13
		c1.71,0.94,4.51,1.6,6.98,1.6c6.13,0,10.1-3.33,10.1-8.47c0-4.13-2.08-6.58-7.43-8.72c-4.27-1.72-6.74-3.43-6.74-7.07
		c0-2.76,2.1-5.73,6.72-5.73c2.27,0,4.12,0.58,5.44,1.19l0.57-1.77c-1.11-0.53-3.03-1.15-5.88-1.15c-5.45,0-9.26,3.27-9.26,7.94
		c0,3.78,2.44,6.44,7.69,8.38c3.87,1.55,6.44,3.37,6.44,7.27c0,3.89-2.89,6.41-7.37,6.41c-2.28,0-4.67-0.61-6.73-1.7L561.76,993.13z
		"/>
	<path fill="#FBB03B" d="M148.88,528.91l2.26,16.88c0.5,3.71,0.95,7.14,1.27,10.57h0.11c0.39-3.36,0.95-6.93,1.52-10.5l2.79-16.95
		h2.61l2.65,16.61c0.64,3.98,1.13,7.48,1.52,10.84h0.11c0.28-3.36,0.74-6.86,1.31-10.77l2.44-16.67h3.07l-5.51,33.21h-2.83
		l-2.61-15.85c-0.6-3.7-1.1-7-1.52-10.91H158c-0.42,3.98-0.95,7.41-1.55,10.98l-2.76,15.78h-2.83l-5.16-33.21H148.88z"/>
	<path fill="#FBB03B" d="M165.5,563.36h-3.76l-2.76-16.71c-0.35-2.17-0.67-4.19-0.95-6.25c-0.31,2.27-0.65,4.36-0.98,6.32
		l-2.9,16.64h-3.76l-5.54-35.69h4.53l2.39,17.81c0.27,2.03,0.53,3.98,0.76,5.89c0.29-1.96,0.6-3.94,0.91-5.88l2.93-17.82h3.55
		l2.79,17.48c0.35,2.17,0.65,4.16,0.91,6.04c0.25-2.02,0.53-4.02,0.8-5.94l2.57-17.58h4.43L165.5,563.36z M162.67,560.88h1.9
		l5.1-30.74h-1.72l-2.31,15.78c-0.49,3.41-0.99,7.07-1.29,10.63l-0.09,1.04h-1.16l-0.11-0.97c-0.38-3.26-0.86-6.68-1.51-10.75
		l-2.51-15.74h-1.68l-2.65,16.09c-0.55,3.47-1.12,7.08-1.5,10.39l-0.11,0.97h-1.15l-0.09-1.02c-0.31-3.36-0.77-6.78-1.25-10.41
		l-2.15-16.02h-1.83l4.77,30.74h1.9l2.61-14.94c0.54-3.19,1.1-6.73,1.53-10.83l0.11-0.99h1.11l0.11,0.98
		c0.41,3.81,0.9,7.07,1.5,10.79L162.67,560.88z"/>
	<g display="none">
		<path display="inline" fill="#CCCCCC" d="M654.35,559.98c0,17.93-29.84,32.47-66.65,32.47v530.74l134.51-543.92
			c2.34-4.91,3.62-10.02,3.62-15.28c0-37.17-61.84-67.29-138.13-67.29v30.8C624.51,527.5,654.35,542.04,654.35,559.98z"/>
		<path display="inline" fill="#CCCCCC" d="M449.57,563.99c0,5.26,1.28,10.36,3.62,15.27L587.7,1123.2l0-0.01V592.45
			c-36.81,0-66.66-14.54-66.66-32.47c0-17.94,29.84-32.48,66.66-32.48v-30.8h0C511.41,496.7,449.57,526.82,449.57,563.99z"/>
	</g>
	<g display="none">
		<path display="inline" fill="#009245" d="M521.04,561.22c0-17.94,29.84-32.48,66.66-32.48V-1.99L453.19,541.93
			c-2.34,4.91-3.62,10.02-3.62,15.28c0,37.17,61.84,67.29,138.13,67.29V593.7C550.88,593.7,521.04,579.16,521.04,561.22z"/>
		<path display="inline" fill="#009245" d="M725.82,557.21c0-5.25-1.28-10.36-3.62-15.27L587.7-2v0.01v530.74
			c36.81,0,66.65,14.54,66.65,32.48c0,17.94-29.84,32.47-66.65,32.47v30.81l0,0C663.98,624.5,725.82,594.37,725.82,557.21z"/>
	</g>
	<g display="none">
		<g display="inline">
			<defs>
				<polygon id="SVGID_1_" points="494.34,515.24 494.34,590.41 584.33,618.76 674.31,590.41 674.31,515.24 584.33,531.75 				"/>
			</defs>
			<clipPath id="SVGID_00000121279360877591378830000007456005854869574545_">
				<use xlink:href="#SVGID_1_"  overflow="visible"/>
			</clipPath>
			<g clip-path="url(#SVGID_00000121279360877591378830000007456005854869574545_)">
				<g enable-background="new    ">
					<g>
						
							<linearGradient id="SVGID_00000156557986303993187100000014621348057709118361_" gradientUnits="userSpaceOnUse" x1="700.2294" y1="574.273" x2="552.5621" y2="610.3742">
							<stop  offset="3.017530e-03" style="stop-color:#7B5E42"/>
							<stop  offset="1" style="stop-color:#423132"/>
						</linearGradient>
						<path fill="url(#SVGID_00000156557986303993187100000014621348057709118361_)" d="M666.19,585.69l8.12-2.39v8.51l-8,2.82
							L666.19,585.69 M656.29,588.41l0.12,9.44l9.66-3.12l-0.12-8.96L656.29,588.41 M645.24,591.43l0.11,9.99l10.78-3.49l-0.12-9.45
							L645.24,591.43 M632.84,594.83l0.1,10.6l12.09-3.91l-0.11-10L632.84,594.83 M618.83,598.67l0.08,11.3l13.68-4.42l-0.1-10.62
							L618.83,598.67 M602.87,603.04l0.06,12.09l15.57-5.03l-0.08-11.32L602.87,603.04 M584.33,608.07v13.01l18.15-5.8l-0.06-12.11
							L584.33,608.07 M670.64,575.22l0.12,8.7l3.54-1.12v-8.49L670.64,575.22 M584.33,594.33v12.96l9.21-2.44l-0.04-12.51
							L584.33,594.33 M661.24,577.3l0.12,9.16l9.17-2.48l-0.12-8.71L661.24,577.3 M650.8,579.62l0.11,9.68l10.18-2.76l-0.12-9.17
							L650.8,579.62 M639.11,582.21l0.1,10.25l11.4-3.09l-0.11-9.69L639.11,582.21 M625.96,585.13l0.09,10.9l12.84-3.48l-0.1-10.27
							L625.96,585.13 M611.04,588.44l0.07,11.64l14.57-3.95l-0.09-10.92L611.04,588.44 M593.98,592.22l0.05,12.49l16.67-4.52
							l-0.07-11.66L593.98,592.22 M665.97,569.22l0.09,6.48l8.26-1.91v-6.17L665.97,569.22 M656.08,571.03l0.08,6.83l9.64-2.11
							l-0.09-6.48L656.08,571.03 M645.04,573.06l0.08,7.22l10.76-2.36l-0.08-6.84L645.04,573.06 M632.67,575.32l0.07,7.67
							l12.07-2.64l-0.08-7.24L632.67,575.32 M618.68,577.89l0.06,8.17l13.65-2.99l-0.07-7.68L618.68,577.89 M602.77,580.8l0.04,8.74
							l15.53-3.4l-0.06-8.18L602.77,580.8 M602.31,580.89l-17.98,3.25v9.41l18.02-3.91L602.31,580.89z"/>
						
							<linearGradient id="SVGID_00000132791556557881048940000006070715311206847904_" gradientUnits="userSpaceOnUse" x1="584.325" y1="595.6268" x2="674.3122" y2="595.6268">
							<stop  offset="3.017530e-03" style="stop-color:#5B4539"/>
							<stop  offset="1" style="stop-color:#8D745C"/>
						</linearGradient>
						<path fill="url(#SVGID_00000132791556557881048940000006070715311206847904_)" d="M665.97,569.22l-0.25,0.05l0.09,6.48
							l-9.64,2.11l-0.08-6.83l-0.28,0.05l0.08,6.84l-10.76,2.36l-0.08-7.22l-0.31,0.06l0.08,7.24l-12.07,2.64l-0.07-7.67l-0.35,0.06
							l0.07,7.68l-13.65,2.99l-0.06-8.17l-0.4,0.07l0.06,8.18l-15.53,3.4l-0.04-8.74l-0.46,0.08l0.04,8.75l-18.02,3.91v0.78l9.16-2
							l0.04,12.51l-9.21,2.44v0.78l18.09-4.9l0.06,12.11l-18.15,5.8v0.96l89.99-29.77v-0.44l-8,2.82l-0.12-8.95l8.12-2.39v-0.51
							l-3.54,1.12l-0.12-8.7l3.67-0.91v-0.51l-8.26,1.91L665.97,569.22z M660.98,577.36l0.12,9.17l-10.18,2.76l-0.11-9.68
							L660.98,577.36z M650.5,579.69l0.11,9.69l-11.4,3.09l-0.1-10.25L650.5,579.69z M638.79,582.28l0.1,10.27l-12.84,3.48
							l-0.09-10.9L638.79,582.28z M625.59,585.21l0.09,10.92l-14.57,3.95l-0.07-11.64L625.59,585.21z M594.02,604.71l-0.05-12.49
							l16.65-3.69l0.07,11.66L594.02,604.71z M602.93,615.13l-0.06-12.09l15.55-4.26l0.08,11.32L602.93,615.13z M618.9,609.97
							l-0.08-11.3l13.66-3.74l0.1,10.62L618.9,609.97z M632.94,605.43l-0.1-10.6l12.08-3.31l0.11,10L632.94,605.43z M645.34,601.42
							l-0.11-9.98l10.77-2.95l0.12,9.45L645.34,601.42z M656.4,597.84l-0.12-9.44l9.65-2.64l0.12,8.96L656.4,597.84z M670.53,583.98
							l-9.17,2.48l-0.12-9.16l9.16-2.03L670.53,583.98z"/>
						
							<linearGradient id="SVGID_00000119095386742586908450000004710855947243144110_" gradientUnits="userSpaceOnUse" x1="671.1164" y1="532.2973" x2="535.1688" y2="563.5099">
							<stop  offset="0" style="stop-color:#E5E2DC"/>
							<stop  offset="0.1851" style="stop-color:#D9D6CF"/>
							<stop  offset="0.5273" style="stop-color:#B8B6AC"/>
							<stop  offset="0.8361" style="stop-color:#969488"/>
							<stop  offset="0.8592" style="stop-color:#918E81"/>
							<stop  offset="0.9414" style="stop-color:#817D6E"/>
							<stop  offset="0.998" style="stop-color:#7C7767"/>
						</linearGradient>
						<polygon fill="url(#SVGID_00000119095386742586908450000004710855947243144110_)" points="584.33,516.16 584.33,584.14 
							602.31,580.89 602.77,580.8 618.28,577.96 618.68,577.89 632.31,575.39 632.67,575.32 644.73,573.11 645.04,573.06 
							655.8,571.09 656.08,571.03 665.72,569.27 665.97,569.22 674.31,567.63 674.31,542.68 						"/>
					</g>
				</g>
				<g enable-background="new    ">
					<g>
						
							<linearGradient id="SVGID_00000021084065141750315280000001891760313960644511_" gradientUnits="userSpaceOnUse" x1="559.6321" y1="556.8917" x2="526.2837" y2="618.4274">
							<stop  offset="3.017530e-03" style="stop-color:#7B5E42"/>
							<stop  offset="1" style="stop-color:#423132"/>
						</linearGradient>
						<path fill="url(#SVGID_00000021084065141750315280000001891760313960644511_)" d="M502.46,585.69l-0.12,8.95l-8-2.82v-8.51
							L502.46,585.69 M512.36,588.41l-9.65-2.64l-0.12,8.96l9.66,3.12L512.36,588.41 M523.41,591.43l-10.77-2.95l-0.12,9.45
							l10.78,3.49L523.41,591.43 M535.81,594.83l-12.08-3.31l-0.11,10l12.09,3.91L535.81,594.83 M549.82,598.67l-13.66-3.74
							l-0.09,10.62l13.68,4.42L549.82,598.67 M565.78,603.04l-15.55-4.26l-0.08,11.32l15.57,5.03L565.78,603.04 M584.33,608.07
							l-18.09-4.9l-0.06,12.11l18.15,5.8V608.07 M498.01,575.22l-3.67-0.92v8.49l3.54,1.12L498.01,575.22 M584.33,594.33l-9.16-2
							l-0.04,12.51l9.21,2.44V594.33 M507.41,577.3l-9.16-2.03l-0.12,8.71l9.17,2.48L507.41,577.3 M517.85,579.62l-10.18-2.26
							l-0.12,9.17l10.18,2.76L517.85,579.62 M529.54,582.21l-11.39-2.53l-0.11,9.69l11.4,3.09L529.54,582.21 M542.69,585.13
							l-12.83-2.85l-0.1,10.27l12.84,3.48L542.69,585.13 M557.61,588.44l-14.55-3.23l-0.09,10.92l14.57,3.95L557.61,588.44
							 M574.67,592.22l-16.65-3.69l-0.07,11.66l16.67,4.52L574.67,592.22 M502.68,569.22l-8.34-1.6v6.17l8.26,1.91L502.68,569.22
							 M512.57,571.03l-9.64-1.77l-0.09,6.48l9.64,2.11L512.57,571.03 M523.61,573.06l-10.76-1.97l-0.08,6.84l10.76,2.36
							L523.61,573.06 M535.98,575.32l-12.06-2.21l-0.08,7.24l12.07,2.64L535.98,575.32 M549.97,577.89l-13.64-2.5l-0.07,7.68
							l13.65,2.99L549.97,577.89 M565.88,580.8l-15.51-2.84l-0.06,8.18l15.53,3.4L565.88,580.8 M566.34,580.89l-0.04,8.75
							l18.02,3.91v-9.41L566.34,580.89z"/>
						
							<linearGradient id="SVGID_00000151531703110491882640000000623693899855295409_" gradientUnits="userSpaceOnUse" x1="494.3378" y1="595.6268" x2="584.325" y2="595.6268">
							<stop  offset="3.017530e-03" style="stop-color:#5B4539"/>
							<stop  offset="1" style="stop-color:#8D745C"/>
						</linearGradient>
						<path fill="url(#SVGID_00000151531703110491882640000000623693899855295409_)" d="M584.33,594.33v-0.78l-18.02-3.91l0.04-8.75
							l-0.46-0.08l-0.04,8.74l-15.53-3.4l0.06-8.18l-0.4-0.07l-0.06,8.17l-13.65-2.99l0.07-7.68l-0.35-0.06l-0.07,7.67l-12.07-2.64
							l0.08-7.24l-0.31-0.06l-0.08,7.22l-10.76-2.36l0.08-6.84l-0.28-0.05l-0.08,6.83l-9.64-2.11l0.09-6.48l-0.25-0.05l-0.09,6.48
							l-8.26-1.91v0.51l3.67,0.91l-0.12,8.7l-3.54-1.12v0.51l8.12,2.39l-0.12,8.95l-8-2.82v0.44l89.99,29.77v-0.96l-18.15-5.8
							l0.06-12.11l18.09,4.9v-0.78l-9.21-2.44l0.04-12.51L584.33,594.33z M543.06,585.21l14.55,3.23l-0.07,11.64l-14.57-3.95
							L543.06,585.21z M529.86,582.28l12.83,2.85l-0.09,10.9l-12.84-3.48L529.86,582.28z M518.15,579.69l11.39,2.53l-0.1,10.25
							l-11.4-3.09L518.15,579.69z M507.67,577.36l10.18,2.26l-0.11,9.68l-10.18-2.76L507.67,577.36z M498.12,583.98l0.12-8.71
							l9.16,2.03l-0.12,9.16L498.12,583.98z M512.25,597.84l-9.66-3.12l0.12-8.96l9.65,2.64L512.25,597.84z M523.31,601.42
							l-10.78-3.49l0.12-9.45l10.77,2.95L523.31,601.42z M535.71,605.43l-12.09-3.91l0.11-10l12.08,3.31L535.71,605.43z
							 M549.75,609.97l-13.68-4.42l0.09-10.62l13.66,3.74L549.75,609.97z M565.72,615.13l-15.57-5.03l0.08-11.32l15.55,4.26
							L565.72,615.13z M574.63,604.71l-16.67-4.52l0.07-11.66l16.65,3.69L574.63,604.71z"/>
						
							<linearGradient id="SVGID_00000050627633045064929060000001732654013667701389_" gradientUnits="userSpaceOnUse" x1="571.6867" y1="495.6731" x2="524.7526" y2="593.9341">
							<stop  offset="1.508760e-03" style="stop-color:#C7C1B3"/>
							<stop  offset="0.3621" style="stop-color:#D9D5CC"/>
							<stop  offset="0.7395" style="stop-color:#E7E5DF"/>
							<stop  offset="1" style="stop-color:#ECEBE6"/>
						</linearGradient>
						<polygon fill="url(#SVGID_00000050627633045064929060000001732654013667701389_)" points="494.34,542.68 494.34,567.63 
							502.68,569.22 502.93,569.27 512.57,571.03 512.85,571.09 523.61,573.06 523.92,573.11 535.98,575.32 536.34,575.39 
							549.97,577.89 550.37,577.96 565.88,580.8 566.34,580.89 584.33,584.14 584.33,516.16 						"/>
					</g>
				</g>
			</g>
		</g>
		<g display="inline">
			
				<linearGradient id="SVGID_00000098186912712520046050000000062245782915273098_" gradientUnits="userSpaceOnUse" x1="592.0781" y1="467.6045" x2="689.3225" y2="503.0774" gradientTransform="matrix(1 0 0 1 -14.6773 0)">
				<stop  offset="2.500830e-03" style="stop-color:#98652F"/>
				<stop  offset="0.5456" style="stop-color:#BE7B2D"/>
				<stop  offset="1" style="stop-color:#BF7E46"/>
			</linearGradient>
			<path fill="url(#SVGID_00000098186912712520046050000000062245782915273098_)" d="M584.33,450.99l90.1,29.76v11.32l-90.1-24.03
				v-5.27v-0.75V450.99 M670.8,496.08l0.17,11.58l3.46,0.55v-11.38L670.8,496.08 M643.17,489.41l0.14,13.37l19.85,3.5L663,494.19
				L643.17,489.41 M605.37,480.29l0.08,15.81l27.36,4.82l-0.13-14.05L605.37,480.29 M584.33,475.16v17.18v0.01v0.02l6.26,1.1
				l-0.05-16.77l-6.21-1.51v-0.02V475.16 M667,496.43l-2.16,4.17l2.28,5.1l2.11-4.18L667,496.43 M638.07,489.65l-2.94,4.74l3.04,6
				l2.87-4.76L638.07,489.65 M598.17,480.31l-4.22,5.49l4.27,7.27l4.09-5.52L598.17,480.31"/>
			
				<linearGradient id="SVGID_00000075126289642486392310000007759609744161599909_" gradientUnits="userSpaceOnUse" x1="502.1548" y1="489.3502" x2="592.6716" y2="472.837" gradientTransform="matrix(1 0 0 1 -14.6773 0)">
				<stop  offset="0.1159" style="stop-color:#BE7B2E"/>
				<stop  offset="0.385" style="stop-color:#C27F31"/>
				<stop  offset="0.6318" style="stop-color:#CD8A3B"/>
				<stop  offset="0.8691" style="stop-color:#DF9C4C"/>
				<stop  offset="1" style="stop-color:#EDAA58"/>
			</linearGradient>
			<path fill="url(#SVGID_00000075126289642486392310000007759609744161599909_)" d="M584.33,450.99v11.03v0.75v5.27l-90.1,24.03
				v-11.32L584.33,450.99 M497.85,496.08l-3.62,0.75v11.38l3.46-0.55L497.85,496.08 M525.48,489.41l-19.83,4.78l-0.16,12.08
				l19.85-3.5L525.48,489.41 M563.28,480.29l-27.31,6.59l-0.13,14.05l27.36-4.82L563.28,480.29 M584.33,475.16v0.02v0.02l-6.21,1.51
				l-0.05,16.77l6.26-1.1v-0.02v-0.01V475.16 M501.65,496.43l-2.24,5.08l2.11,4.18l2.28-5.1L501.65,496.43 M530.58,489.65
				l-2.97,5.97l2.87,4.76l3.04-6L530.58,489.65 M570.48,480.31l-4.15,7.23l4.09,5.52l4.27-7.27L570.48,480.31"/>
			
				<linearGradient id="SVGID_00000010993551913012703060000003648866355331610293_" gradientUnits="userSpaceOnUse" x1="538.3046" y1="441.6923" x2="541.1927" y2="571.6614">
				<stop  offset="0" style="stop-color:#2B2620"/>
				<stop  offset="0.4143" style="stop-color:#27221C"/>
				<stop  offset="0.8532" style="stop-color:#1A1611"/>
				<stop  offset="1" style="stop-color:#14110C"/>
			</linearGradient>
			<path fill="url(#SVGID_00000010993551913012703060000003648866355331610293_)" d="M584.33,426.83v24.16l-90.1,29.76v-16.07
				L584.33,426.83z M494.22,508.2l3.46-0.55l0.17-11.58l-3.62,0.75v-4.75l90.1-24.03v7.16l-6.21,1.51l-0.05,16.77l6.26-1.1v89.37
				c-17.91,0-22.82-39.45-22.82-39.45s-6.76,33.61-23.96,29.93c-13.89-2.97-16.11-28.17-16.11-28.17
				c-3.16,25.02-22.89,30.69-27.1,4.92L494.22,508.2z M566.33,487.54l4.09,5.52l4.27-7.27l-4.22-5.49L566.33,487.54z M535.84,500.92
				l27.36-4.82l0.08-15.81l-27.31,6.59L535.84,500.92z M527.61,495.63l2.87,4.76l3.04-6l-2.94-4.74L527.61,495.63z M505.49,506.28
				l19.85-3.5l0.14-13.37l-19.83,4.78L505.49,506.28z M499.41,501.51l2.11,4.18l2.28-5.1l-2.16-4.17L499.41,501.51z"/>
			<path fill="#14110C" d="M674.43,464.68v16.07l-90.1-29.76v-24.16L674.43,464.68z M584.33,492.38l6.26,1.1l-0.05-16.77l-6.21-1.51
				v-7.16l90.1,24.03v4.75l-3.62-0.75l0.17,11.58l3.46,0.55l-0.11,40.77c-4.22,25.77-23.95,20.11-27.11-4.92
				c0,0-2.22,25.2-16.09,28.17c-17.2,3.68-23.96-29.93-23.96-29.93s-4.92,39.45-22.82,39.45l0,0V492.38z M664.84,500.6l2.28,5.1
				l2.11-4.18l-2.24-5.08L664.84,500.6z M643.17,489.41l0.14,13.37l19.85,3.5L663,494.19L643.17,489.41z M635.13,494.39l3.04,6
				l2.87-4.76l-2.97-5.97L635.13,494.39z M605.37,480.29l0.08,15.81l27.36,4.82l-0.13-14.05L605.37,480.29z M593.96,485.79
				l4.27,7.27l4.09-5.52l-4.15-7.23L593.96,485.79z"/>
		</g>
	</g>
</g>
</svg>
