<?xml version="1.0" encoding="utf-8"?>
<!-- Generator: Adobe Illustrator 26.0.1, SVG Export Plug-In . SVG Version: 6.00 Build 0)  -->
<svg version="1.1" xmlns="http://www.w3.org/2000/svg" xmlns:xlink="http://www.w3.org/1999/xlink" x="0px" y="0px"
	 viewBox="0 0 1122 1122" enable-background="new 0 0 1122 1122" xml:space="preserve">
<g id="BG" display="none">
	<rect display="inline" fill="#E6E6E6" width="1122" height="1122"/>
</g>
<g id="Object">
	<g display="none">
		<g display="inline">
			<rect x="568.4" y="204.19" fill="#FBB03B" width="5.13" height="39.6"/>
		</g>
		<g display="inline">
			<rect x="568.4" y="876.8" fill="#FBB03B" width="5.13" height="39.6"/>
		</g>
		<g display="inline">
			
				<rect x="509.26" y="209.97" transform="matrix(0.9847 -0.1741 0.1741 0.9847 -30.8348 92.3801)" fill="#EDBE7E" width="4" height="24.03"/>
		</g>
		<g display="inline">
			
				<rect x="628.67" y="885.59" transform="matrix(0.9847 -0.174 0.174 0.9847 -146.5643 123.4308)" fill="#EDBE7E" width="4" height="24.03"/>
		</g>
		<g display="inline">
			<polygon fill="#EDBE7E" points="455.61,249.43 447.38,226.86 451.13,225.49 459.37,248.07 			"/>
		</g>
		<g display="inline">
			<polygon fill="#EDBE7E" points="690.8,894.1 682.57,871.53 686.33,870.16 694.56,892.74 			"/>
		</g>
		<g display="inline">
			<polygon fill="#EDBE7E" points="403.34,274.13 391.3,253.33 394.77,251.33 406.81,272.14 			"/>
		</g>
		<g display="inline">
			<polygon fill="#EDBE7E" points="747.17,868.26 735.13,847.46 738.59,845.46 750.64,866.27 			"/>
		</g>
		<g display="inline">
			<polygon fill="#EDBE7E" points="356.17,307.51 340.69,289.11 343.75,286.54 359.23,304.95 			"/>
		</g>
		<g display="inline">
			<polygon fill="#EDBE7E" points="798.18,833.05 782.71,814.65 785.77,812.08 801.25,830.49 			"/>
		</g>
		<g display="inline">
			<polygon fill="#EDBE7E" points="315.52,348.56 297.07,333.12 299.64,330.06 318.09,345.5 			"/>
		</g>
		<g display="inline">
			<polygon fill="#EDBE7E" points="842.29,789.54 823.85,774.09 826.42,771.04 844.87,786.48 			"/>
		</g>
		<g display="inline">
			<polygon fill="#EDBE7E" points="282.64,396.02 261.78,384.01 263.78,380.55 284.64,392.56 			"/>
		</g>
		<g display="inline">
			<polygon fill="#EDBE7E" points="878.16,739.04 857.31,727.03 859.31,723.57 880.16,735.58 			"/>
		</g>
		<g display="inline">
			<polygon fill="#EDBE7E" points="258.51,448.46 235.88,440.24 237.25,436.49 259.88,444.71 			"/>
		</g>
		<g display="inline">
			<polygon fill="#EDBE7E" points="904.69,683.1 882.06,674.88 883.43,671.13 906.06,679.35 			"/>
		</g>
		<g display="inline">
			
				<rect x="230.37" y="488.19" transform="matrix(0.1731 -0.9849 0.9849 0.1731 -300.5338 642.5052)" fill="#EDBE7E" width="3.99" height="24.08"/>
		</g>
		<g display="inline">
			
				<rect x="907.58" y="607.32" transform="matrix(0.1732 -0.9849 0.9849 0.1732 142.0263 1407.9053)" fill="#EDBE7E" width="3.99" height="24.08"/>
		</g>
		<g display="inline">
			<rect x="220.5" y="557.23" fill="#FBB03B" width="39.69" height="5.12"/>
		</g>
		<g display="inline">
			<rect x="884.76" y="557.23" fill="#FBB03B" width="39.69" height="5.12"/>
		</g>
		<g display="inline">
			
				<rect x="220.33" y="617.36" transform="matrix(0.9848 -0.174 0.174 0.9848 -104.203 49.8676)" fill="#EDBE7E" width="24.08" height="3.99"/>
		</g>
		<g display="inline">
			
				<rect x="897.54" y="498.23" transform="matrix(0.9848 -0.174 0.174 0.9848 -73.1527 165.8611)" fill="#EDBE7E" width="24.08" height="3.99"/>
		</g>
		<g display="inline">
			<polygon fill="#EDBE7E" points="237.25,683.1 235.88,679.35 258.51,671.13 259.88,674.88 			"/>
		</g>
		<g display="inline">
			<polygon fill="#EDBE7E" points="883.43,448.46 882.06,444.71 904.69,436.49 906.06,440.24 			"/>
		</g>
		<g display="inline">
			<polygon fill="#EDBE7E" points="263.78,739.04 261.78,735.58 282.64,723.57 284.64,727.03 			"/>
		</g>
		<g display="inline">
			<polygon fill="#EDBE7E" points="859.31,396.02 857.31,392.56 878.16,380.55 880.16,384 			"/>
		</g>
		<g display="inline">
			<polygon fill="#EDBE7E" points="299.65,789.53 297.08,786.47 315.52,771.03 318.09,774.09 			"/>
		</g>
		<g display="inline">
			<polygon fill="#EDBE7E" points="826.42,348.55 823.85,345.5 842.3,330.05 844.87,333.11 			"/>
		</g>
		<g display="inline">
			<polygon fill="#EDBE7E" points="343.76,833.05 340.69,830.48 356.17,812.07 359.24,814.64 			"/>
		</g>
		<g display="inline">
			<polygon fill="#EDBE7E" points="785.77,307.51 782.71,304.94 798.19,286.54 801.25,289.1 			"/>
		</g>
		<g display="inline">
			<polygon fill="#EDBE7E" points="394.77,868.26 391.31,866.26 403.35,845.45 406.81,847.45 			"/>
		</g>
		<g display="inline">
			<polygon fill="#EDBE7E" points="738.6,274.13 735.13,272.13 747.17,251.33 750.64,253.32 			"/>
		</g>
		<g display="inline">
			<polygon fill="#EDBE7E" points="451.14,894.1 447.38,892.73 455.61,870.15 459.37,871.52 			"/>
		</g>
		<g display="inline">
			<polygon fill="#EDBE7E" points="686.33,249.43 682.57,248.06 690.8,225.49 694.56,226.85 			"/>
		</g>
		<g display="inline">
			
				<rect x="499.25" y="895.6" transform="matrix(0.1732 -0.9849 0.9849 0.1732 -461.3108 1245.6973)" fill="#EDBE7E" width="24.03" height="4"/>
		</g>
		<g display="inline">
			
				<rect x="618.66" y="219.98" transform="matrix(0.1732 -0.9849 0.9849 0.1732 302.826 804.6831)" fill="#EDBE7E" width="24.03" height="4"/>
		</g>
	</g>
	<g display="none">
		<g display="inline">
			
				<rect x="558.25" y="215.04" transform="matrix(0.9994 -0.0349 0.0349 0.9994 -7.3663 19.6333)" fill="#BCBCED" width="1.71" height="11.87"/>
		</g>
		<g display="inline">
			
				<rect x="581.97" y="892.68" transform="matrix(0.9994 -0.035 0.035 0.9994 -31.0957 20.9503)" fill="#BCBCED" width="1.71" height="11.87"/>
		</g>
		<g display="inline">
			
				<rect x="546.41" y="215.66" transform="matrix(0.9976 -0.0698 0.0698 0.9976 -14.1388 38.7593)" fill="#BCBCED" width="1.71" height="11.87"/>
		</g>
		<g display="inline">
			
				<rect x="593.82" y="892.06" transform="matrix(0.9976 -0.0699 0.0699 0.9976 -61.2964 43.7492)" fill="#BCBCED" width="1.71" height="11.87"/>
		</g>
		<g display="inline">
			
				<rect x="534.59" y="216.69" transform="matrix(0.9945 -0.1046 0.1046 0.9945 -20.3556 57.2502)" fill="#BCBCED" width="1.71" height="11.87"/>
		</g>
		<g display="inline">
			
				<rect x="605.63" y="891.03" transform="matrix(0.9945 -0.1047 0.1047 0.9945 -90.6109 68.4557)" fill="#BCBCED" width="1.71" height="11.87"/>
		</g>
		<g display="inline">
			
				<rect x="522.82" y="218.13" transform="matrix(0.9902 -0.1394 0.1394 0.9902 -26.1161 75.1671)" fill="#BCBCED" width="1.71" height="11.87"/>
		</g>
		<g display="inline">
			
				<rect x="617.41" y="889.59" transform="matrix(0.9902 -0.1395 0.1395 0.9902 -118.887 95.0097)" fill="#BCBCED" width="1.71" height="11.88"/>
		</g>
		<g display="inline">
			<polygon fill="#BCBCED" points="500.71,234.16 498.24,222.54 499.91,222.19 502.39,233.8 			"/>
		</g>
		<g display="inline">
			
				<rect x="640.77" y="885.48" transform="matrix(0.978 -0.2084 0.2084 0.978 -171.6874 153.2903)" fill="#BCBCED" width="1.71" height="11.87"/>
		</g>
		<g display="inline">
			<polygon fill="#BCBCED" points="489.36,236.8 486.49,225.28 488.15,224.87 491.03,236.39 			"/>
		</g>
		<g display="inline">
			<polygon fill="#BCBCED" points="653.79,894.72 650.91,883.2 652.57,882.79 655.45,894.31 			"/>
		</g>
		<g display="inline">
			<polygon fill="#BCBCED" points="478.11,239.84 474.84,228.43 476.48,227.96 479.76,239.37 			"/>
		</g>
		<g display="inline">
			<polygon fill="#BCBCED" points="665.46,891.64 662.17,880.22 663.82,879.75 667.1,891.17 			"/>
		</g>
		<g display="inline">
			<polygon fill="#BCBCED" points="466.98,243.27 463.3,231.98 464.93,231.45 468.61,242.74 			"/>
		</g>
		<g display="inline">
			<polygon fill="#BCBCED" points="677.01,888.14 673.33,876.85 674.95,876.32 678.63,887.62 			"/>
		</g>
		<g display="inline">
			<polygon fill="#BCBCED" points="445.1,251.28 440.64,240.27 442.23,239.63 446.69,250.64 			"/>
		</g>
		<g display="inline">
			<polygon fill="#BCBCED" points="699.71,879.96 695.25,868.96 696.84,868.32 701.29,879.32 			"/>
		</g>
		<g display="inline">
			<polygon fill="#BCBCED" points="434.38,255.85 429.55,245 431.11,244.31 435.95,255.15 			"/>
		</g>
		<g display="inline">
			<polygon fill="#BCBCED" points="710.83,875.29 705.99,864.44 707.55,863.75 712.39,874.59 			"/>
		</g>
		<g display="inline">
			<polygon fill="#BCBCED" points="423.84,260.79 418.62,250.12 420.16,249.37 425.37,260.04 			"/>
		</g>
		<g display="inline">
			<polygon fill="#BCBCED" points="721.78,870.23 716.56,859.55 718.1,858.8 723.32,869.48 			"/>
		</g>
		<g display="inline">
			<polygon fill="#BCBCED" points="413.46,266.09 407.88,255.61 409.39,254.81 414.98,265.29 			"/>
		</g>
		<g display="inline">
			<polygon fill="#BCBCED" points="732.55,864.79 726.96,854.3 728.47,853.5 734.06,863.98 			"/>
		</g>
		<g display="inline">
			<polygon fill="#BCBCED" points="393.31,277.77 387.01,267.7 388.46,266.79 394.77,276.86 			"/>
		</g>
		<g display="inline">
			<polygon fill="#BCBCED" points="753.48,852.8 747.17,842.73 748.62,841.82 754.93,851.89 			"/>
		</g>
		<g display="inline">
			<polygon fill="#BCBCED" points="383.56,284.13 376.9,274.29 378.32,273.33 384.97,283.17 			"/>
		</g>
		<g display="inline">
			<polygon fill="#BCBCED" points="763.62,846.26 756.96,836.42 758.38,835.47 765.04,845.31 			"/>
		</g>
		<g display="inline">
			<polygon fill="#BCBCED" points="374.03,290.82 367.03,281.22 368.42,280.21 375.41,289.82 			"/>
		</g>
		<g display="inline">
			<polygon fill="#BCBCED" points="773.52,839.38 766.52,829.78 767.91,828.77 774.91,838.38 			"/>
		</g>
		<g display="inline">
			<polygon fill="#BCBCED" points="364.74,297.84 357.41,288.49 358.76,287.44 366.09,296.79 			"/>
		</g>
		<g display="inline">
			<polygon fill="#BCBCED" points="783.18,832.16 775.85,822.8 777.2,821.75 784.53,831.11 			"/>
		</g>
		<g display="inline">
			<polygon fill="#BCBCED" points="346.92,312.83 338.96,304.01 340.23,302.86 348.2,311.69 			"/>
		</g>
		<g display="inline">
			<polygon fill="#BCBCED" points="801.71,816.73 793.74,807.9 795.01,806.76 802.98,815.59 			"/>
		</g>
		<g display="inline">
			<polygon fill="#BCBCED" points="338.42,320.78 330.16,312.24 331.39,311.06 339.65,319.6 			"/>
		</g>
		<g display="inline">
			<polygon fill="#BCBCED" points="810.55,808.54 802.29,800 803.52,798.81 811.78,807.35 			"/>
		</g>
		<g display="inline">
			<polygon fill="#BCBCED" points="330.2,329.03 321.64,320.78 322.83,319.55 331.39,327.8 			"/>
		</g>
		<g display="inline">
			<polygon fill="#BCBCED" points="819.11,800.05 810.55,791.8 811.73,790.57 820.3,798.82 			"/>
		</g>
		<g display="inline">
			<polygon fill="#BCBCED" points="322.27,337.55 313.43,329.6 314.58,328.33 323.42,336.28 			"/>
		</g>
		<g display="inline">
			<polygon fill="#BCBCED" points="827.36,791.26 818.52,783.31 819.66,782.05 828.5,789.99 			"/>
		</g>
		<g display="inline">
			<polygon fill="#BCBCED" points="307.34,355.4 297.97,348.09 299.02,346.74 308.4,354.05 			"/>
		</g>
		<g display="inline">
			<polygon fill="#BCBCED" points="842.92,772.85 833.54,765.54 834.6,764.2 843.98,771.51 			"/>
		</g>
		<g display="inline">
			<polygon fill="#BCBCED" points="300.35,364.7 290.73,357.72 291.73,356.34 301.36,363.32 			"/>
		</g>
		<g display="inline">
			<polygon fill="#BCBCED" points="850.21,763.25 840.58,756.28 841.59,754.89 851.21,761.87 			"/>
		</g>
		<g display="inline">
			<polygon fill="#BCBCED" points="293.69,374.24 283.83,367.6 284.79,366.19 294.65,372.83 			"/>
		</g>
		<g display="inline">
			<polygon fill="#BCBCED" points="857.16,753.41 847.29,746.77 848.25,745.35 858.11,751.99 			"/>
		</g>
		<g display="inline">
			<polygon fill="#BCBCED" points="287.37,384.01 277.28,377.72 278.19,376.27 288.28,382.56 			"/>
		</g>
		<g display="inline">
			<polygon fill="#BCBCED" points="863.75,743.33 853.66,737.03 854.57,735.59 864.66,741.88 			"/>
		</g>
		<g display="inline">
			<polygon fill="#BCBCED" points="275.77,404.17 265.27,398.6 266.07,397.09 276.57,402.66 			"/>
		</g>
		<g display="inline">
			<polygon fill="#BCBCED" points="875.88,722.5 865.37,716.93 866.17,715.42 876.68,720.99 			"/>
		</g>
		<g display="inline">
			<polygon fill="#BCBCED" points="270.51,414.55 259.81,409.34 260.56,407.81 271.26,413.01 			"/>
		</g>
		<g display="inline">
			<polygon fill="#BCBCED" points="881.38,711.79 870.68,706.58 871.43,705.05 882.13,710.25 			"/>
		</g>
		<g display="inline">
			<polygon fill="#BCBCED" points="265.61,425.1 254.74,420.26 255.44,418.7 266.3,423.54 			"/>
		</g>
		<g display="inline">
			<polygon fill="#BCBCED" points="886.51,700.89 875.64,696.06 876.33,694.5 887.21,699.32 			"/>
		</g>
		<g display="inline">
			<polygon fill="#BCBCED" points="261.08,435.81 250.05,431.36 250.69,429.78 261.72,434.23 			"/>
		</g>
		<g display="inline">
			<polygon fill="#BCBCED" points="891.25,689.82 880.22,685.37 880.86,683.78 891.89,688.23 			"/>
		</g>
		<g display="inline">
			<polygon fill="#BCBCED" points="253.17,457.68 241.85,454.01 242.38,452.38 253.7,456.05 			"/>
		</g>
		<g display="inline">
			<polygon fill="#BCBCED" points="899.56,667.21 888.24,663.54 888.77,661.92 900.09,665.58 			"/>
		</g>
		<g display="inline">
			<polygon fill="#BCBCED" points="249.79,468.8 238.35,465.53 238.82,463.89 250.26,467.16 			"/>
		</g>
		<g display="inline">
			
				<rect x="896.78" y="647.29" transform="matrix(0.2752 -0.9614 0.9614 0.2752 22.5914 1336.4541)" fill="#BCBCED" width="1.71" height="11.9"/>
		</g>
		<g display="inline">
			
				<rect x="240.38" y="471.83" transform="matrix(0.2415 -0.9704 0.9704 0.2415 -280.6545 596.4984)" fill="#BCBCED" width="1.71" height="11.9"/>
		</g>
		<g display="inline">
			<polygon fill="#BCBCED" points="906.27,644.08 894.72,641.21 895.14,639.55 906.69,642.42 			"/>
		</g>
		<g display="inline">
			
				<rect x="237.71" y="483.36" transform="matrix(0.2077 -0.9782 0.9782 0.2077 -289.623 621.0387)" fill="#BCBCED" width="1.71" height="11.9"/>
		</g>
		<g display="inline">
			<polygon fill="#BCBCED" points="909.01,632.35 897.37,629.88 897.73,628.21 909.37,630.68 			"/>
		</g>
		<g display="inline">
			
				<rect x="233.6" y="506.66" transform="matrix(0.1389 -0.9903 0.9903 0.1389 -305.7569 673.5923)" fill="#BCBCED" width="1.71" height="11.9"/>
		</g>
		<g display="inline">
			
				<rect x="906.64" y="601.03" transform="matrix(0.1389 -0.9903 0.9903 0.1389 180.3504 1421.3673)" fill="#BCBCED" width="1.71" height="11.9"/>
		</g>
		<g display="inline">
			
				<rect x="232.15" y="518.41" transform="matrix(0.1045 -0.9945 0.9945 0.1045 -312.8357 701.2772)" fill="#BCBCED" width="1.71" height="11.9"/>
		</g>
		<g display="inline">
			
				<rect x="908.08" y="589.28" transform="matrix(0.1045 -0.9945 0.9945 0.1045 221.9627 1436.9779)" fill="#BCBCED" width="1.71" height="11.9"/>
		</g>
		<g display="inline">
			
				<rect x="231.12" y="530.2" transform="matrix(0.0697 -0.9976 0.9976 0.0697 -319.037 730.1934)" fill="#BCBCED" width="1.71" height="11.9"/>
		</g>
		<g display="inline">
			
				<rect x="909.12" y="577.49" transform="matrix(0.0695 -0.9976 0.9976 0.0695 264.7279 1450.6913)" fill="#BCBCED" width="1.71" height="11.9"/>
		</g>
		<g display="inline">
			
				<rect x="230.5" y="542.01" transform="matrix(0.035 -0.9994 0.9994 0.035 -324.3853 759.9672)" fill="#BCBCED" width="1.71" height="11.9"/>
		</g>
		<g display="inline">
			
				<rect x="909.74" y="565.68" transform="matrix(0.0348 -0.9994 0.9994 0.0348 307.5919 1461.755)" fill="#BCBCED" width="1.71" height="11.9"/>
		</g>
		<g display="inline">
			
				<rect x="225.4" y="570.77" transform="matrix(0.9994 -0.0349 0.0349 0.9994 -19.8065 8.4213)" fill="#BCBCED" width="11.9" height="1.71"/>
		</g>
		<g display="inline">
			
				<rect x="904.64" y="547.11" transform="matrix(0.9994 -0.0349 0.0349 0.9994 -18.567 32.1096)" fill="#BCBCED" width="11.9" height="1.71"/>
		</g>
		<g display="inline">
			
				<rect x="226.02" y="582.59" transform="matrix(0.9976 -0.0697 0.0697 0.9976 -40.1157 17.5939)" fill="#BCBCED" width="11.9" height="1.71"/>
		</g>
		<g display="inline">
			
				<rect x="904.02" y="535.29" transform="matrix(0.9976 -0.0697 0.0697 0.9976 -35.1678 64.7519)" fill="#BCBCED" width="11.9" height="1.71"/>
		</g>
		<g display="inline">
			
				<rect x="227.06" y="594.38" transform="matrix(0.9945 -0.1046 0.1046 0.9945 -61.0105 27.6517)" fill="#BCBCED" width="11.9" height="1.71"/>
		</g>
		<g display="inline">
			
				<rect x="902.99" y="523.5" transform="matrix(0.9945 -0.1052 0.1052 0.9945 -50.107 98.5035)" fill="#BCBCED" width="11.9" height="1.71"/>
		</g>
		<g display="inline">
			
				<rect x="228.5" y="606.13" transform="matrix(0.9902 -0.1395 0.1395 0.9902 -82.3923 38.6471)" fill="#BCBCED" width="11.9" height="1.71"/>
		</g>
		<g display="inline">
			
				<rect x="901.54" y="511.76" transform="matrix(0.9902 -0.1395 0.1395 0.9902 -62.6433 131.6265)" fill="#BCBCED" width="11.9" height="1.71"/>
		</g>
		<g display="inline">
			<polygon fill="#BCBCED" points="232.93,632.35 232.57,630.68 244.21,628.21 244.57,629.88 			"/>
		</g>
		<g display="inline">
			<polygon fill="#BCBCED" points="897.73,491.38 897.38,489.7 909.02,487.24 909.37,488.91 			"/>
		</g>
		<g display="inline">
			
				<rect x="235.29" y="640.96" transform="matrix(0.9702 -0.2424 0.2424 0.9702 -148.3957 77.6274)" fill="#BCBCED" width="11.9" height="1.71"/>
		</g>
		<g display="inline">
			<polygon fill="#BCBCED" points="895.14,480.04 894.72,478.38 906.27,475.51 906.69,477.17 			"/>
		</g>
		<g display="inline">
			<polygon fill="#BCBCED" points="238.82,655.7 238.35,654.06 249.79,650.79 250.26,652.43 			"/>
		</g>
		<g display="inline">
			<polygon fill="#BCBCED" points="892.15,468.8 891.68,467.16 903.12,463.89 903.59,465.53 			"/>
		</g>
		<g display="inline">
			<polygon fill="#BCBCED" points="242.38,667.21 241.85,665.58 253.17,661.92 253.7,663.54 			"/>
		</g>
		<g display="inline">
			<polygon fill="#BCBCED" points="888.77,457.67 888.24,456.05 899.56,452.38 900.09,454.01 			"/>
		</g>
		<g display="inline">
			<polygon fill="#BCBCED" points="250.69,689.81 250.05,688.23 261.08,683.78 261.73,685.37 			"/>
		</g>
		<g display="inline">
			<polygon fill="#BCBCED" points="880.86,435.81 880.22,434.22 891.25,429.78 891.89,431.36 			"/>
		</g>
		<g display="inline">
			<polygon fill="#BCBCED" points="255.44,700.89 254.74,699.33 265.61,694.49 266.31,696.05 			"/>
		</g>
		<g display="inline">
			<polygon fill="#BCBCED" points="876.33,425.09 875.64,423.53 886.51,418.7 887.21,420.27 			"/>
		</g>
		<g display="inline">
			<polygon fill="#BCBCED" points="260.56,711.79 259.81,710.25 270.51,705.05 271.26,706.58 			"/>
		</g>
		<g display="inline">
			<polygon fill="#BCBCED" points="871.44,414.54 870.69,413.01 881.38,407.8 882.13,409.34 			"/>
		</g>
		<g display="inline">
			<polygon fill="#BCBCED" points="266.07,722.5 265.27,720.99 275.77,715.42 276.58,716.93 			"/>
		</g>
		<g display="inline">
			<polygon fill="#BCBCED" points="866.17,404.17 865.37,402.66 875.87,397.09 876.68,398.6 			"/>
		</g>
		<g display="inline">
			<polygon fill="#BCBCED" points="278.19,743.32 277.28,741.87 287.37,735.58 288.28,737.03 			"/>
		</g>
		<g display="inline">
			<polygon fill="#BCBCED" points="854.57,384 853.66,382.56 863.76,376.26 864.66,377.71 			"/>
		</g>
		<g display="inline">
			<polygon fill="#BCBCED" points="284.79,753.4 283.83,751.99 293.7,745.35 294.65,746.77 			"/>
		</g>
		<g display="inline">
			<polygon fill="#BCBCED" points="848.25,374.24 847.29,372.82 857.16,366.18 858.11,367.6 			"/>
		</g>
		<g display="inline">
			<polygon fill="#BCBCED" points="291.73,763.25 290.73,761.87 300.36,754.89 301.36,756.27 			"/>
		</g>
		<g display="inline">
			<polygon fill="#BCBCED" points="841.59,364.7 840.58,363.32 850.21,356.34 851.22,357.72 			"/>
		</g>
		<g display="inline">
			<polygon fill="#BCBCED" points="299.02,772.85 297.97,771.5 307.35,764.19 308.4,765.54 			"/>
		</g>
		<g display="inline">
			<polygon fill="#BCBCED" points="834.6,355.39 833.54,354.05 842.92,346.74 843.97,348.09 			"/>
		</g>
		<g display="inline">
			<polygon fill="#BCBCED" points="314.58,791.26 313.43,789.99 322.28,782.04 323.42,783.31 			"/>
		</g>
		<g display="inline">
			<polygon fill="#BCBCED" points="819.66,337.54 818.52,336.27 827.36,328.33 828.51,329.6 			"/>
		</g>
		<g display="inline">
			<polygon fill="#BCBCED" points="322.83,800.04 321.64,798.81 330.21,790.57 331.39,791.8 			"/>
		</g>
		<g display="inline">
			<polygon fill="#BCBCED" points="811.73,329.02 810.55,327.79 819.11,319.54 820.3,320.77 			"/>
		</g>
		<g display="inline">
			<polygon fill="#BCBCED" points="331.39,808.53 330.16,807.35 338.42,798.81 339.66,799.99 			"/>
		</g>
		<g display="inline">
			<polygon fill="#BCBCED" points="803.52,320.78 802.29,319.59 810.56,311.05 811.79,312.24 			"/>
		</g>
		<g display="inline">
			<polygon fill="#BCBCED" points="340.24,816.72 338.97,815.58 346.93,806.76 348.2,807.9 			"/>
		</g>
		<g display="inline">
			<polygon fill="#BCBCED" points="795.02,312.83 793.74,311.68 801.71,302.86 802.98,304.01 			"/>
		</g>
		<g display="inline">
			<polygon fill="#BCBCED" points="358.76,832.16 357.41,831.1 364.74,821.75 366.09,822.8 			"/>
		</g>
		<g display="inline">
			<polygon fill="#BCBCED" points="777.2,297.83 775.85,296.78 783.18,287.43 784.53,288.48 			"/>
		</g>
		<g display="inline">
			<polygon fill="#BCBCED" points="368.42,839.38 367.04,838.37 374.03,828.77 375.42,829.77 			"/>
		</g>
		<g display="inline">
			<polygon fill="#BCBCED" points="767.91,290.82 766.52,289.81 773.52,280.21 774.91,281.21 			"/>
		</g>
		<g display="inline">
			<polygon fill="#BCBCED" points="378.32,846.26 376.91,845.3 383.56,835.46 384.98,836.42 			"/>
		</g>
		<g display="inline">
			<polygon fill="#BCBCED" points="758.38,284.12 756.97,283.17 763.62,273.32 765.04,274.28 			"/>
		</g>
		<g display="inline">
			<polygon fill="#BCBCED" points="388.46,852.79 387.01,851.89 393.32,841.82 394.77,842.73 			"/>
		</g>
		<g display="inline">
			<polygon fill="#BCBCED" points="748.62,277.76 747.17,276.86 753.48,266.79 754.93,267.7 			"/>
		</g>
		<g display="inline">
			<polygon fill="#BCBCED" points="409.39,864.78 407.88,863.98 413.47,853.49 414.98,854.3 			"/>
		</g>
		<g display="inline">
			<polygon fill="#BCBCED" points="728.47,266.09 726.96,265.29 732.55,254.8 734.06,255.6 			"/>
		</g>
		<g display="inline">
			<polygon fill="#BCBCED" points="420.16,870.22 418.62,869.47 423.84,858.8 425.38,859.55 			"/>
		</g>
		<g display="inline">
			<polygon fill="#BCBCED" points="718.1,260.79 716.56,260.04 721.78,249.36 723.32,250.11 			"/>
		</g>
		<g display="inline">
			<polygon fill="#BCBCED" points="431.11,875.28 429.55,874.59 434.39,863.74 435.95,864.44 			"/>
		</g>
		<g display="inline">
			<polygon fill="#BCBCED" points="707.56,255.84 705.99,255.15 710.83,244.3 712.4,244.99 			"/>
		</g>
		<g display="inline">
			<polygon fill="#BCBCED" points="442.23,879.96 440.65,879.32 445.11,868.31 446.69,868.95 			"/>
		</g>
		<g display="inline">
			<polygon fill="#BCBCED" points="696.84,251.27 695.25,250.63 699.71,239.63 701.29,240.27 			"/>
		</g>
		<g display="inline">
			<polygon fill="#BCBCED" points="464.93,888.14 463.3,887.61 466.98,876.32 468.61,876.85 			"/>
		</g>
		<g display="inline">
			<polygon fill="#BCBCED" points="674.96,243.26 673.33,242.74 677.01,231.44 678.64,231.97 			"/>
		</g>
		<g display="inline">
			<polygon fill="#BCBCED" points="476.48,891.63 474.84,891.16 478.12,879.75 479.77,880.22 			"/>
		</g>
		<g display="inline">
			<polygon fill="#BCBCED" points="663.82,239.84 662.18,239.37 665.46,227.95 667.1,228.42 			"/>
		</g>
		<g display="inline">
			<polygon fill="#BCBCED" points="488.15,894.72 486.49,894.31 489.37,882.79 491.03,883.2 			"/>
		</g>
		<g display="inline">
			<polygon fill="#BCBCED" points="652.58,236.8 650.91,236.39 653.79,224.86 655.45,225.28 			"/>
		</g>
		<g display="inline">
			
				<rect x="494.38" y="890.56" transform="matrix(0.2077 -0.9782 0.9782 0.2077 -475.5693 1195.679)" fill="#BCBCED" width="11.87" height="1.71"/>
		</g>
		<g display="inline">
			<polygon fill="#BCBCED" points="641.22,234.15 639.55,233.8 642.03,222.19 643.7,222.54 			"/>
		</g>
		<g display="inline">
			
				<rect x="517.74" y="894.67" transform="matrix(0.1389 -0.9903 0.9903 0.1389 -435.9089 1289.722)" fill="#BCBCED" width="11.88" height="1.71"/>
		</g>
		<g display="inline">
			
				<rect x="612.33" y="223.2" transform="matrix(0.1389 -0.9903 0.9903 0.1389 310.4933 805.2067)" fill="#BCBCED" width="11.88" height="1.71"/>
		</g>
		<g display="inline">
			
				<rect x="529.51" y="896.11" transform="matrix(0.1042 -0.9946 0.9946 0.1042 -412.4189 1336.0521)" fill="#BCBCED" width="11.87" height="1.71"/>
		</g>
		<g display="inline">
			
				<rect x="600.55" y="221.76" transform="matrix(0.1042 -0.9946 0.9946 0.1042 321.8979 802.6164)" fill="#BCBCED" width="11.88" height="1.71"/>
		</g>
		<g display="inline">
			
				<rect x="541.33" y="897.14" transform="matrix(0.0694 -0.9976 0.9976 0.0694 -386.567 1381.579)" fill="#BCBCED" width="11.87" height="1.71"/>
		</g>
		<g display="inline">
			
				<rect x="588.74" y="220.73" transform="matrix(0.0694 -0.9976 0.9976 0.0694 332.3284 799.4372)" fill="#BCBCED" width="11.87" height="1.71"/>
		</g>
		<g display="inline">
			
				<rect x="553.18" y="897.76" transform="matrix(0.0348 -0.9994 0.9994 0.0348 -358.3928 1426.1567)" fill="#BCBCED" width="11.87" height="1.71"/>
		</g>
		<g display="inline">
			
				<rect x="576.89" y="220.11" transform="matrix(0.0353 -0.9994 0.9994 0.0353 341.4365 795.6393)" fill="#BCBCED" width="11.87" height="1.71"/>
		</g>
	</g>
	<path display="none" fill="#FBB03B" d="M870.11,560.66h-8.65v8h9.64v2.4H858.6v-22.19h12.01v2.4h-9.14v7.01h8.65V560.66z"/>
	<path display="none" fill="#FBB03B" d="M871.7,571.66H858v-23.38h13.2v3.59h-9.14v5.83h8.65v3.56h-8.65v6.81h9.64V571.66z
		 M859.19,570.47h11.32v-1.22h-9.64v-9.19h8.65v-1.18h-8.65v-8.2h9.14v-1.22h-10.82V570.47z"/>
	<path display="none" fill="#FBB03B" d="M560.98,283.58v-25.89h3.66l8.32,13.1c1.92,3.04,3.43,5.76,4.66,8.41l0.08-0.04
		c-0.31-3.46-0.38-6.61-0.38-10.64v-10.83h3.16v25.89h-3.39l-8.24-13.14c-1.81-2.88-3.54-5.84-4.85-8.64l-0.12,0.04
		c0.19,3.27,0.27,6.38,0.27,10.68v11.06H560.98z"/>
	<path display="none" fill="#FBB03B" d="M581.16,284.28h-4.47l-8.44-13.46c-1.43-2.27-2.59-4.24-3.54-6.03
		c0.09,2.29,0.13,4.71,0.13,7.73v11.76h-4.55V257h4.73l8.52,13.42c1.22,1.92,2.28,3.75,3.23,5.53c-0.13-2.41-0.16-4.79-0.16-7.42
		V257h4.55V284.28z M577.46,282.89h2.31v-24.5H578v10.14c0,3.78,0.06,7.02,0.38,10.58l0.04,0.47l-1.14,0.56l-0.3-0.64
		c-1.24-2.66-2.75-5.39-4.62-8.33l-8.11-12.78h-2.58v24.5h1.77v-10.37c0-4.32-0.08-7.4-0.27-10.64l-0.03-0.53l1.21-0.41l0.26,0.56
		c1.13,2.42,2.66,5.14,4.81,8.57L577.46,282.89z"/>
	<path display="none" fill="#FBB03B" d="M566.63,858.2c1.2,0.77,2.96,1.41,4.81,1.41c2.75,0,4.35-1.51,4.35-3.69
		c0-2.02-1.11-3.17-3.92-4.3c-3.39-1.25-5.49-3.08-5.49-6.12c0-3.37,2.68-5.87,6.72-5.87c2.13,0,3.67,0.51,4.6,1.06l-0.74,2.28
		c-0.68-0.38-2.07-1.03-3.95-1.03c-2.84,0-3.92,1.76-3.92,3.24c0,2.02,1.26,3.01,4.13,4.17c3.52,1.41,5.31,3.17,5.31,6.35
		c0,3.33-2.38,6.22-7.28,6.22c-2,0-4.19-0.61-5.31-1.38L566.63,858.2z"/>
	<path display="none" fill="#FBB03B" d="M571.26,862.5c-2.05,0-4.36-0.61-5.61-1.48l-0.34-0.24l1.01-3.47l0.62,0.39
		c1.3,0.83,2.99,1.33,4.52,1.33c2.34,0,3.79-1.19,3.79-3.11c0-1.48-0.58-2.57-3.56-3.76c-3.93-1.45-5.85-3.63-5.85-6.66
		c0-3.79,2.99-6.45,7.28-6.45c2.56,0,4.15,0.71,4.87,1.13l0.4,0.24l-1.1,3.38l-0.58-0.33c-0.77-0.44-2.03-0.96-3.68-0.96
		c-2.48,0-3.36,1.43-3.36,2.66c0,1.6,0.92,2.48,3.78,3.63c3.97,1.59,5.66,3.65,5.66,6.89C579.1,858.84,577.05,862.5,571.26,862.5z
		 M566.61,860.28c1.14,0.63,3.01,1.07,4.65,1.07c4.08,0,6.72-2.21,6.72-5.64c0-2.75-1.39-4.38-4.95-5.81
		c-2.84-1.14-4.49-2.28-4.49-4.71c0-1.84,1.4-3.82,4.47-3.82c1.51,0,2.74,0.38,3.62,0.79l0.38-1.18c-0.74-0.35-2.02-0.77-3.91-0.77
		c-3.63,0-6.17,2.17-6.17,5.29c0,2.52,1.63,4.29,5.12,5.58c2.58,1.03,4.29,2.25,4.29,4.84c0,2.59-1.93,4.27-4.91,4.27
		c-1.52,0-3.11-0.41-4.48-1.13L566.61,860.28z"/>
	<path display="none" fill="#FBB03B" d="M291.64,551.11l1.51,11.24c0.33,2.47,0.64,4.75,0.85,7.04h0.07
		c0.26-2.24,0.64-4.62,1.01-6.99l1.86-11.29h1.74l1.76,11.06c0.42,2.65,0.75,4.98,1.01,7.22h0.07c0.19-2.24,0.49-4.57,0.87-7.18
		l1.62-11.1h2.05l-3.67,22.12h-1.88l-1.74-10.56c-0.4-2.47-0.73-4.66-1.01-7.27h-0.05c-0.28,2.65-0.64,4.93-1.04,7.31l-1.84,10.51
		h-1.88l-3.44-22.12H291.64z"/>
	<path display="none" fill="#FBB03B" d="M302.71,574.05h-2.5l-1.84-11.13c-0.23-1.45-0.44-2.79-0.63-4.16
		c-0.21,1.51-0.43,2.9-0.66,4.21l-1.93,11.08h-2.5l-3.69-23.77h3.02l1.59,11.86c0.18,1.35,0.35,2.65,0.51,3.93
		c0.19-1.3,0.4-2.62,0.6-3.91l1.95-11.87h2.36l1.86,11.64c0.23,1.45,0.43,2.77,0.6,4.02c0.16-1.35,0.35-2.68,0.53-3.96l1.71-11.71
		h2.95L302.71,574.05z M300.82,572.4h1.26l3.4-20.47h-1.14l-1.54,10.51c-0.33,2.27-0.66,4.71-0.86,7.08l-0.06,0.69h-0.77l-0.07-0.64
		c-0.25-2.17-0.57-4.45-1-7.16l-1.67-10.48h-1.12l-1.76,10.71c-0.37,2.31-0.75,4.71-1,6.92l-0.07,0.64h-0.77l-0.06-0.68
		c-0.21-2.24-0.51-4.52-0.83-6.93l-1.43-10.67h-1.22l3.18,20.47h1.26l1.74-9.95c0.36-2.13,0.73-4.48,1.02-7.21l0.07-0.66h0.74
		l0.07,0.65c0.27,2.54,0.6,4.71,1,7.19L300.82,572.4z"/>
	<g>
		<path fill="#CCCCCC" d="M592.31,533.69c0,11.73-19.52,21.24-43.61,21.24v347.26l88.01-355.88c1.53-3.22,2.37-6.56,2.37-10
			c0-24.32-40.46-44.03-90.37-44.03v20.15C572.79,512.44,592.31,521.96,592.31,533.69z"/>
		<path fill="#CCCCCC" d="M458.32,536.32c0,3.44,0.83,6.78,2.37,9.99L548.7,902.2l0,0V554.94c-24.09,0-43.61-9.51-43.61-21.24
			c0-11.74,19.53-21.25,43.61-21.25v-20.15h0C498.78,492.29,458.32,512,458.32,536.32z"/>
	</g>
	<g>
		<path fill="#009245" d="M505.09,534.51c0-11.73,19.53-21.25,43.61-21.25V166l-88.01,355.88c-1.53,3.22-2.37,6.56-2.37,10
			c0,24.32,40.46,44.03,90.37,44.03v-20.16C524.61,555.75,505.09,546.24,505.09,534.51z"/>
		<path fill="#009245" d="M639.07,531.88c0-3.44-0.84-6.78-2.37-9.99L548.7,166v0v347.25c24.09,0,43.61,9.51,43.61,21.25
			c0,11.74-19.52,21.25-43.61,21.25v20.16l0,0C598.61,575.91,639.07,556.2,639.07,531.88z"/>
	</g>
	<g>
		<g>
			<defs>
				<polygon id="SVGID_1_" points="487.61,504.42 487.61,553.61 546.49,572.15 605.37,553.61 605.37,504.42 546.49,515.23 				"/>
			</defs>
			<clipPath id="SVGID_00000020383527020866154550000012643435803569698714_">
				<use xlink:href="#SVGID_1_"  overflow="visible"/>
			</clipPath>
			<g clip-path="url(#SVGID_00000020383527020866154550000012643435803569698714_)">
				<g enable-background="new    ">
					<g>
						
							<linearGradient id="SVGID_00000062171955335382922530000009964964581522292911_" gradientUnits="userSpaceOnUse" x1="622.3254" y1="543.0458" x2="525.7091" y2="566.6663">
							<stop  offset="3.017530e-03" style="stop-color:#7B5E42"/>
							<stop  offset="1" style="stop-color:#423132"/>
						</linearGradient>
						<path fill="url(#SVGID_00000062171955335382922530000009964964581522292911_)" d="M600.06,550.52l5.31-1.56v5.57l-5.23,1.84
							L600.06,550.52 M593.58,552.29l0.08,6.17l6.32-2.04l-0.08-5.86L593.58,552.29 M586.34,554.27l0.07,6.53l7.05-2.28l-0.08-6.18
							L586.34,554.27 M578.24,556.5l0.06,6.94l7.91-2.56l-0.07-6.54L578.24,556.5 M569.06,559.01l0.05,7.39l8.95-2.89l-0.06-6.95
							L569.06,559.01 M558.63,561.87l0.04,7.91l10.19-3.29l-0.05-7.4L558.63,561.87 M546.49,565.16v8.51l11.87-3.79l-0.04-7.93
							L546.49,565.16 M602.97,543.66l0.08,5.69l2.32-0.73v-5.56L602.97,543.66 M546.49,556.17v8.48l6.02-1.6l-0.03-8.19
							L546.49,556.17 M596.82,545.03l0.08,5.99l6-1.63l-0.08-5.7L596.82,545.03 M589.98,546.54l0.07,6.33l6.66-1.81l-0.08-6
							L589.98,546.54 M582.34,548.24l0.07,6.71l7.46-2.02l-0.07-6.34L582.34,548.24 M573.73,550.15l0.06,7.13l8.4-2.28l-0.07-6.72
							L573.73,550.15 M563.97,552.32l0.05,7.62l9.53-2.58l-0.06-7.15L563.97,552.32 M552.81,554.79l0.03,8.17l10.91-2.96l-0.05-7.63
							L552.81,554.79 M599.91,539.74l0.06,4.24l5.4-1.25v-4.03L599.91,539.74 M593.44,540.93l0.05,4.47l6.31-1.38l-0.06-4.24
							L593.44,540.93 M586.21,542.25l0.05,4.73l7.04-1.54l-0.05-4.48L586.21,542.25 M578.12,543.73l0.05,5.02l7.89-1.73l-0.05-4.73
							L578.12,543.73 M568.97,545.41l0.04,5.34l8.93-1.95l-0.05-5.02L568.97,545.41 M558.56,547.32l0.03,5.72l10.16-2.22l-0.04-5.35
							L558.56,547.32 M558.26,547.37l-11.77,2.13v6.16l11.79-2.56L558.26,547.37z"/>
						
							<linearGradient id="SVGID_00000081629449570387968760000011758588459358514068_" gradientUnits="userSpaceOnUse" x1="546.4911" y1="557.0173" x2="605.3682" y2="557.0173">
							<stop  offset="3.017530e-03" style="stop-color:#5B4539"/>
							<stop  offset="1" style="stop-color:#8D745C"/>
						</linearGradient>
						<path fill="url(#SVGID_00000081629449570387968760000011758588459358514068_)" d="M599.91,539.74l-0.16,0.03l0.06,4.24
							l-6.31,1.38l-0.05-4.47l-0.18,0.03l0.05,4.48l-7.04,1.54l-0.05-4.73l-0.21,0.04l0.05,4.73l-7.89,1.73l-0.05-5.02l-0.23,0.04
							l0.05,5.02l-8.93,1.95l-0.04-5.34l-0.26,0.05l0.04,5.35l-10.16,2.22l-0.03-5.72l-0.3,0.05l0.03,5.73l-11.79,2.56v0.51
							l5.99-1.31l0.03,8.19l-6.02,1.6v0.51l11.84-3.21l0.04,7.93l-11.87,3.79v0.63l58.88-19.48v-0.29l-5.23,1.84l-0.08-5.85
							l5.31-1.56v-0.33l-2.32,0.73l-0.08-5.69l2.4-0.6v-0.33l-5.4,1.25L599.91,539.74z M596.64,545.07l0.08,6l-6.66,1.81l-0.07-6.33
							L596.64,545.07z M589.79,546.59l0.07,6.34l-7.46,2.02l-0.07-6.71L589.79,546.59z M582.13,548.29l0.07,6.72l-8.4,2.28
							l-0.06-7.13L582.13,548.29z M573.49,550.2l0.06,7.15l-9.53,2.58l-0.05-7.62L573.49,550.2z M552.84,562.96l-0.03-8.17
							l10.89-2.42l0.05,7.63L552.84,562.96z M558.67,569.78l-0.04-7.91l10.17-2.79l0.05,7.41L558.67,569.78z M569.12,566.4
							l-0.05-7.39l8.94-2.45l0.06,6.95L569.12,566.4z M578.3,563.43l-0.06-6.94l7.9-2.16l0.07,6.54L578.3,563.43z M586.41,560.81
							l-0.07-6.53l7.05-1.93l0.08,6.18L586.41,560.81z M593.65,558.47l-0.08-6.17l6.31-1.73l0.08,5.86L593.65,558.47z M602.89,549.4
							l-6,1.63l-0.08-5.99l5.99-1.33L602.89,549.4z"/>
						
							<linearGradient id="SVGID_00000096040302190225159960000013258671306964599943_" gradientUnits="userSpaceOnUse" x1="603.2772" y1="515.5818" x2="514.329" y2="536.0037">
							<stop  offset="0" style="stop-color:#E5E2DC"/>
							<stop  offset="0.1851" style="stop-color:#D9D6CF"/>
							<stop  offset="0.5273" style="stop-color:#B8B6AC"/>
							<stop  offset="0.8361" style="stop-color:#969488"/>
							<stop  offset="0.8592" style="stop-color:#918E81"/>
							<stop  offset="0.9414" style="stop-color:#817D6E"/>
							<stop  offset="0.998" style="stop-color:#7C7767"/>
						</linearGradient>
						<polygon fill="url(#SVGID_00000096040302190225159960000013258671306964599943_)" points="546.49,505.02 546.49,549.5 
							558.26,547.37 558.56,547.32 568.71,545.46 568.97,545.41 577.89,543.78 578.12,543.73 586.01,542.29 586.21,542.25 
							593.25,540.96 593.44,540.93 599.74,539.77 599.91,539.74 605.37,538.7 605.37,522.38 						"/>
					</g>
				</g>
				<g enable-background="new    ">
					<g>
						
							<linearGradient id="SVGID_00000079457842848678131310000011290598029387966898_" gradientUnits="userSpaceOnUse" x1="530.3348" y1="531.6735" x2="508.5156" y2="571.9353">
							<stop  offset="3.017530e-03" style="stop-color:#7B5E42"/>
							<stop  offset="1" style="stop-color:#423132"/>
						</linearGradient>
						<path fill="url(#SVGID_00000079457842848678131310000011290598029387966898_)" d="M492.93,550.52l-0.08,5.85l-5.23-1.84v-5.57
							L492.93,550.52 M499.41,552.29l-6.31-1.73l-0.08,5.86l6.32,2.04L499.41,552.29 M506.64,554.27l-7.05-1.93l-0.08,6.18
							l7.05,2.28L506.64,554.27 M514.75,556.5l-7.9-2.17l-0.07,6.54l7.91,2.56L514.75,556.5 M523.92,559.01l-8.94-2.45l-0.06,6.95
							l8.95,2.89L523.92,559.01 M534.36,561.87l-10.17-2.79l-0.05,7.4l10.19,3.29L534.36,561.87 M546.49,565.16l-11.84-3.21
							l-0.04,7.93l11.87,3.79V565.16 M490.01,543.66l-2.4-0.6v5.56l2.32,0.73L490.01,543.66 M546.49,556.17l-5.99-1.31l-0.03,8.19
							l6.02,1.6V556.17 M496.17,545.03l-5.99-1.33l-0.08,5.7l6,1.63L496.17,545.03 M503,546.54l-6.66-1.48l-0.08,6l6.66,1.81
							L503,546.54 M510.65,548.24l-7.45-1.65l-0.07,6.34l7.46,2.02L510.65,548.24 M519.25,550.15l-8.39-1.86l-0.07,6.72l8.4,2.28
							L519.25,550.15 M529.01,552.32l-9.52-2.11l-0.06,7.15l9.53,2.58L529.01,552.32 M540.18,554.79l-10.89-2.42l-0.05,7.63
							l10.91,2.96L540.18,554.79 M493.07,539.74l-5.46-1.04v4.03l5.4,1.25L493.07,539.74 M499.55,540.93l-6.31-1.16l-0.06,4.24
							l6.31,1.38L499.55,540.93 M506.77,542.25l-7.04-1.29l-0.05,4.48l7.04,1.54L506.77,542.25 M514.86,543.73l-7.89-1.45
							l-0.05,4.73l7.89,1.73L514.86,543.73 M524.01,545.41l-8.92-1.63l-0.05,5.02l8.93,1.95L524.01,545.41 M534.43,547.32
							l-10.15-1.86l-0.04,5.35l10.16,2.22L534.43,547.32 M534.73,547.37l-0.03,5.73l11.79,2.56v-6.16L534.73,547.37z"/>
						
							<linearGradient id="SVGID_00000169542614382150186890000008480844751370069644_" gradientUnits="userSpaceOnUse" x1="487.6139" y1="557.0173" x2="546.4911" y2="557.0173">
							<stop  offset="3.017530e-03" style="stop-color:#5B4539"/>
							<stop  offset="1" style="stop-color:#8D745C"/>
						</linearGradient>
						<path fill="url(#SVGID_00000169542614382150186890000008480844751370069644_)" d="M546.49,556.17v-0.51l-11.79-2.56l0.03-5.73
							l-0.3-0.05l-0.03,5.72l-10.16-2.22l0.04-5.35l-0.26-0.05l-0.04,5.34l-8.93-1.95l0.05-5.02l-0.23-0.04l-0.05,5.02l-7.89-1.73
							l0.05-4.73l-0.21-0.04l-0.05,4.73l-7.04-1.54l0.05-4.48l-0.18-0.03l-0.05,4.47l-6.31-1.38l0.06-4.24l-0.16-0.03l-0.06,4.24
							l-5.4-1.25v0.33l2.4,0.6l-0.08,5.69l-2.32-0.73v0.33l5.31,1.56l-0.08,5.85l-5.23-1.84v0.29l58.88,19.48v-0.63l-11.87-3.79
							l0.04-7.93l11.84,3.21v-0.51l-6.02-1.6l0.03-8.19L546.49,556.17z M519.49,550.2l9.52,2.11l-0.05,7.62l-9.53-2.58L519.49,550.2
							z M510.86,548.29l8.39,1.86l-0.06,7.13l-8.4-2.28L510.86,548.29z M503.19,546.59l7.45,1.65l-0.07,6.71l-7.46-2.02
							L503.19,546.59z M496.34,545.07l6.66,1.48l-0.07,6.33l-6.66-1.81L496.34,545.07z M490.09,549.4l0.08-5.7l5.99,1.33l-0.08,5.99
							L490.09,549.4z M499.33,558.47l-6.32-2.04l0.08-5.86l6.31,1.73L499.33,558.47z M506.57,560.81l-7.05-2.28l0.08-6.18l7.05,1.93
							L506.57,560.81z M514.68,563.43l-7.91-2.56l0.07-6.54l7.9,2.16L514.68,563.43z M523.87,566.4l-8.95-2.89l0.06-6.95l8.94,2.45
							L523.87,566.4z M534.32,569.78l-10.19-3.29l0.05-7.41l10.17,2.79L534.32,569.78z M540.15,562.96l-10.91-2.96l0.05-7.63
							l10.89,2.42L540.15,562.96z"/>
						
							<linearGradient id="SVGID_00000082328998015806658840000010224082328747420558_" gradientUnits="userSpaceOnUse" x1="538.222" y1="491.6192" x2="507.5139" y2="555.9098">
							<stop  offset="1.508760e-03" style="stop-color:#C7C1B3"/>
							<stop  offset="0.3621" style="stop-color:#D9D5CC"/>
							<stop  offset="0.7395" style="stop-color:#E7E5DF"/>
							<stop  offset="1" style="stop-color:#ECEBE6"/>
						</linearGradient>
						<polygon fill="url(#SVGID_00000082328998015806658840000010224082328747420558_)" points="487.61,522.38 487.61,538.7 
							493.07,539.74 493.24,539.77 499.55,540.93 499.73,540.96 506.77,542.25 506.97,542.29 514.86,543.73 515.09,543.78 
							524.01,545.41 524.28,545.46 534.43,547.32 534.73,547.37 546.49,549.5 546.49,505.02 						"/>
					</g>
				</g>
			</g>
		</g>
		<g>
			
				<linearGradient id="SVGID_00000137819705825687960350000006016822794448932023_" gradientUnits="userSpaceOnUse" x1="556.6379" y1="473.2544" x2="620.2634" y2="496.4637" gradientTransform="matrix(1 0 0 1 -14.6773 0)">
				<stop  offset="2.500830e-03" style="stop-color:#98652F"/>
				<stop  offset="0.5456" style="stop-color:#BE7B2D"/>
				<stop  offset="1" style="stop-color:#BF7E46"/>
			</linearGradient>
			<path fill="url(#SVGID_00000137819705825687960350000006016822794448932023_)" d="M546.49,462.38l58.95,19.47v7.41l-58.95-15.72
				v-3.45v-0.49V462.38 M603.07,491.88l0.11,7.57l2.26,0.36v-7.44L603.07,491.88 M584.99,487.52l0.09,8.75l12.99,2.29l-0.11-7.91
				L584.99,487.52 M560.26,481.55l0.05,10.35l17.9,3.16l-0.08-9.19L560.26,481.55 M546.49,478.2v11.24v0.01v0.01l4.1,0.72
				l-0.04-10.97l-4.06-0.98v-0.01V478.2 M600.58,492.11l-1.41,2.73l1.49,3.34l1.38-2.74L600.58,492.11 M581.65,487.68l-1.92,3.1
				l1.99,3.92l1.88-3.12L581.65,487.68 M555.55,481.57l-2.76,3.59l2.79,4.76l2.68-3.61L555.55,481.57"/>
			
				<linearGradient id="SVGID_00000083062879435556733140000018339295889718571697_" gradientUnits="userSpaceOnUse" x1="497.8027" y1="487.4823" x2="557.0263" y2="476.6779" gradientTransform="matrix(1 0 0 1 -14.6773 0)">
				<stop  offset="0.1159" style="stop-color:#BE7B2E"/>
				<stop  offset="0.385" style="stop-color:#C27F31"/>
				<stop  offset="0.6318" style="stop-color:#CD8A3B"/>
				<stop  offset="0.8691" style="stop-color:#DF9C4C"/>
				<stop  offset="1" style="stop-color:#EDAA58"/>
			</linearGradient>
			<path fill="url(#SVGID_00000083062879435556733140000018339295889718571697_)" d="M546.49,462.38v7.22v0.49v3.45l-58.95,15.72
				v-7.41L546.49,462.38 M489.91,491.88l-2.37,0.49v7.44l2.26-0.36L489.91,491.88 M507.99,487.52l-12.97,3.13l-0.11,7.91l12.99-2.29
				L507.99,487.52 M532.72,481.55l-17.87,4.31l-0.08,9.19l17.9-3.16L532.72,481.55 M546.49,478.2v0.01v0.01l-4.06,0.98l-0.04,10.97
				l4.1-0.72v-0.01v-0.01V478.2 M492.4,492.11l-1.47,3.33l1.38,2.74l1.49-3.34L492.4,492.11 M511.33,487.68l-1.94,3.91l1.88,3.12
				l1.99-3.92L511.33,487.68 M537.43,481.57l-2.71,4.73l2.68,3.61l2.79-4.76L537.43,481.57"/>
			
				<linearGradient id="SVGID_00000099634338449936919070000005529586876887185332_" gradientUnits="userSpaceOnUse" x1="516.3807" y1="456.3005" x2="518.2703" y2="541.3372">
				<stop  offset="0" style="stop-color:#2B2620"/>
				<stop  offset="0.4143" style="stop-color:#27221C"/>
				<stop  offset="0.8532" style="stop-color:#1A1611"/>
				<stop  offset="1" style="stop-color:#14110C"/>
			</linearGradient>
			<path fill="url(#SVGID_00000099634338449936919070000005529586876887185332_)" d="M546.49,446.58v15.81l-58.95,19.47v-10.52
				L546.49,446.58z M487.54,499.82l2.26-0.36l0.11-7.57l-2.37,0.49v-3.11l58.95-15.72v4.69l-4.06,0.98l-0.04,10.97l4.1-0.72v58.47
				c-11.72,0-14.93-25.81-14.93-25.81s-4.42,21.99-15.68,19.58c-9.09-1.94-10.54-18.43-10.54-18.43
				c-2.07,16.37-14.98,20.08-17.73,3.22L487.54,499.82z M534.72,486.3l2.68,3.61l2.79-4.76l-2.76-3.59L534.72,486.3z M514.77,495.06
				l17.9-3.16l0.05-10.35l-17.87,4.31L514.77,495.06z M509.38,491.59l1.88,3.12l1.99-3.92l-1.92-3.1L509.38,491.59z M494.91,498.56
				l12.99-2.29l0.09-8.75l-12.97,3.13L494.91,498.56z M490.93,495.44l1.38,2.74l1.49-3.34l-1.41-2.73L490.93,495.44z"/>
			<path fill="#14110C" d="M605.44,471.34v10.52l-58.95-19.47v-15.81L605.44,471.34z M546.49,489.46l4.1,0.72l-0.04-10.97
				l-4.06-0.98v-4.69l58.95,15.72v3.11l-2.37-0.49l0.11,7.57l2.26,0.36l-0.07,26.68c-2.76,16.86-15.67,13.16-17.74-3.22
				c0,0-1.46,16.49-10.53,18.43c-11.26,2.41-15.68-19.58-15.68-19.58s-3.22,25.81-14.93,25.81l0,0V489.46z M599.17,494.84l1.49,3.34
				l1.38-2.74l-1.47-3.33L599.17,494.84z M584.99,487.52l0.09,8.75l12.99,2.29l-0.11-7.91L584.99,487.52z M579.73,490.78l1.99,3.92
				l1.88-3.12l-1.94-3.91L579.73,490.78z M560.26,481.55l0.05,10.35l17.9,3.16l-0.08-9.19L560.26,481.55z M552.79,485.16l2.79,4.76
				l2.68-3.61l-2.71-4.73L552.79,485.16z"/>
		</g>
	</g>
</g>
</svg>
