<?xml version="1.0" encoding="utf-8"?>
<!-- Generator: Adobe Illustrator 26.0.1, SVG Export Plug-In . SVG Version: 6.00 Build 0)  -->
<svg version="1.1" id="Layer_1" xmlns="http://www.w3.org/2000/svg" xmlns:xlink="http://www.w3.org/1999/xlink" x="0px" y="0px"
	 viewBox="0 0 473.86 505.67" enable-background="new 0 0 473.86 505.67" xml:space="preserve">
<g display="none">
	<g display="inline">
		<path fill="#282A2B" d="M439.78,372.53c-124.27-69.94-248.53,70.27-372.8,0.11c0-77.99,0-155.99,0-233.98
			c124.27,70.16,248.53-70.05,372.8-0.11C439.78,216.54,439.78,294.54,439.78,372.53z"/>
		<g>
			<path fill="#F9ED2D" d="M439.78,372.53c-124.27-69.94-248.53,70.27-372.8,0.11c0-40.3,0-80.58,0-120.87
				c124.27,70.16,248.53-70.05,372.8-0.11C439.78,291.95,439.78,332.23,439.78,372.53z"/>
		</g>
		<g>
			<path fill="#DD3330" d="M66.97,294.33c124.34,70.19,248.66-70.19,373,0c0-26.24,0-52.49,0-78.73
				c-124.34-70.19-248.66,70.19-373,0C66.97,241.84,66.97,268.09,66.97,294.33z"/>
		</g>
	</g>
	<g display="inline">
		<linearGradient id="SVGID_1_" gradientUnits="userSpaceOnUse" x1="66.7777" y1="257.4758" x2="439.6653" y2="257.4758">
			<stop  offset="0" style="stop-color:#FFFFFF"/>
			<stop  offset="0.1324" style="stop-color:#F3F3F2"/>
			<stop  offset="0.3417" style="stop-color:#DDDDDD"/>
			<stop  offset="0.5399" style="stop-color:#C4C5C6"/>
			<stop  offset="0.5735" style="stop-color:#C2C2C3"/>
			<stop  offset="0.6933" style="stop-color:#BFBFC0"/>
			<stop  offset="0.9141" style="stop-color:#FFFFFF"/>
		</linearGradient>
		<path fill="url(#SVGID_1_)" d="M439.67,217.42v78.75c0,0-0.11,0-0.11-0.11v78.31c-124.3-69.9-248.61,70.23-372.78,0.11V140.46
			c124.17,70.24,248.48-70,372.78-0.11v76.96C439.56,217.42,439.67,217.42,439.67,217.42z"/>
		
			<linearGradient id="SVGID_00000090978059741800447800000015059961108826331319_" gradientUnits="userSpaceOnUse" x1="66.7777" y1="257.4758" x2="439.6653" y2="257.4758">
			<stop  offset="0" style="stop-color:#FFFFFF"/>
			<stop  offset="0.1324" style="stop-color:#F3F3F2"/>
			<stop  offset="0.3417" style="stop-color:#DDDDDD"/>
			<stop  offset="0.5399" style="stop-color:#C4C5C6"/>
			<stop  offset="0.5735" style="stop-color:#C2C2C3"/>
			<stop  offset="0.6933" style="stop-color:#BFBFC0"/>
			<stop  offset="0.9141" style="stop-color:#FFFFFF"/>
		</linearGradient>
		<path opacity="0.25" fill="url(#SVGID_00000090978059741800447800000015059961108826331319_)" d="M439.67,217.42v78.75
			c0,0-0.11,0-0.11-0.11v78.31c-124.3-69.9-248.61,70.23-372.78,0.11V140.46c124.17,70.24,248.48-70,372.78-0.11v76.96
			C439.56,217.42,439.67,217.42,439.67,217.42z"/>
	</g>
</g>
<g>
	<g>
		
			<linearGradient id="SVGID_00000060740310211004899620000015958613057845678982_" gradientUnits="userSpaceOnUse" x1="67.5014" y1="257.4682" x2="439.6558" y2="257.4682">
			<stop  offset="0" style="stop-color:#39B54A"/>
			<stop  offset="1" style="stop-color:#009444"/>
		</linearGradient>
		<path fill="url(#SVGID_00000060740310211004899620000015958613057845678982_)" d="M439.66,374.26
			c-124.05-70.07-248.11,70.07-372.15,0c0-77.86,0-155.72,0-233.58c124.05,70.07,248.11-70.07,372.15,0
			C439.66,218.54,439.66,296.4,439.66,374.26z"/>
	</g>
</g>
<g>
	<g>
		<g>
			<path fill="#FFFFFF" d="M340.07,207.08c-0.56-2.03-1.69-5.78-2.32-7.8c-0.75-2.43-1.84-4.9-1.19-6.62
				c0.59-1.55,6.64,6.74,8.01,9.53c0.39,0.8,0.74,1.95,0.2,1.98c-2.32,0.13-0.74,2.73-0.53,4.47c0.92,7.51,5.68,13.7,9.95,20.09
				c0.16,0.24,0.47,0.37,0.95,0.73c-0.51-4.41-2.18-8.82-3.4-13.15c-1.33-4.72-2.78-9.47-4.23-14.21c-0.69-2.26-1.7-4.45-0.83-5.71
				c1-1.46,10.37,11.18,8.02,11.97c-2.66-0.34,0.09,6.07,0.94,9.41c1.61,6.33,3.36,12.66,5.03,18.93c0.74,2.77,1.76,5.45,3.5,8.02
				c4.35,6.42,9.84,13.42,13.83,19.77c0.46,0.74,0.97,1.44,1.81,2.63c0.21-5.36-1.21-9.9-2.51-14.54
				c-4.18-15.26-8.4-30.47-13.14-45.57c-0.25-0.74-1.98-5.69-0.79-5.42c1.24,0.28,10.89,13.3,8.31,13.07
				c-0.38-0.03-1.16,0.78-0.59,2.87c4.4,16.14,9.76,32.73,11.76,49.38c0.78,8.31-1.35,15.13-8.98,15.9
				c-1.33,0.13-3.83,0.46-4.41-0.69c-0.48-0.96,0.62-1.19,1.31-1.34c5.94-1.28,7.07-3.79,8.32-6.74c0.64-1.51,0.22-3.37-1.24-4.96
				c-3.28-3.6-6.47-8.49-9.97-13.13c-0.69-0.91-1.32-2.66-2.34-2.37c-0.89,0.26-0.76,1.97-0.62,2.93c0.52,3.49,1.07,7.1,2.06,11.67
				c0.17,0.79,0.19,2-0.73,1.84c-1.28-0.22-1.68-2.26-1.95-3.37c-1.77-7.21-3.04-13.58-4.69-20.83c-0.47-2.06-1.28-3.8-2.6-5.63
				c-2.5-3.47-4.9-7.08-7.98-11.6c1.06,4.69,1.9,8.4,2.73,12.11c1.57,6.98,3.21,13.99,4.22,20.83c0.89,6.01-0.29,7.08-3.86,7.1
				c-2.87,0.02-6.95-2.53-10.37-6.57c-2.89-3.42-3.49-3.68-4.38-0.92c-0.8,2.48-1.13,5.36-1.89,8.02c-1.1,3.89-3.99,3.75-7.99-0.51
				c-5.29-5.65-5.97-11.22-6.43-17.89c1.48,0.98,1.93,1.96,1.9,2.99c-0.1,3.78,2.02,7.49,4.32,11.13c0.78,1.23,1.81,2.34,3.2,2.43
				c1.25,0.08,1.57-0.82,1.72-1.83c0.37-2.48,0.67-4.94,1.06-7.31c0.32-1.97,1.06-3.99,2.63-5.11c2.06-1.46,4.21-0.26,6.25,3.63
				c1.2,2.3,2.66,4.22,4.35,5.75c1.77,1.6,3.5,2.73,5.05,2.31c1.58-0.43,1.65-2.27,1.06-4.8c-1.56-6.66-3.21-13.34-4.76-19.98
				c-1.34-5.77-2.61-11.52-3.85-17.25c-0.48-2.22-1.28-4.27-2.61-6.37c-3.79-6-7.35-12-11.55-17.14c-0.67-0.82-1.22-1.86-1.65-2.85
				c-0.66-1.49-0.83-2.97,0.05-3.86c0.88-0.88,1.9,0.36,2.82,1.12c1.13,0.93,2.26,1.89,3.34,2.96c1.16,1.15,2.45,1.94,1.61,4.08
				C335.31,202.51,339.84,207.13,340.07,207.08z"/>
			<path fill="#FFFFFF" d="M164.28,268.82c-1.57-0.97-1.28-1.93-1.52-2.78c-1.71-6.22-2.86-12.25-5.04-18.31
				c-0.78-2.17-1.89-3.63-5.11-4.4c-5.56-1.34-9.15-5.61-9.33-10.6c-0.08-2.21,0.17-4.37,0.29-6.8c-1.39,0.51-1.12,1.6-1.31,2.44
				c-0.91,4.08-1.51,8.29-2.88,12.37c-0.41,1.23-0.76,2.85-2.46,3c-1.62,0.15-2.66-1.18-3.59-2.29c-2.41-2.91-5.24-14.25-4.26-18.16
				c1.04,3.17,1.86,5.84,2.79,8.46c0.54,1.52,1.09,3.07,1.96,4.45c1.17,1.86,2.45,1.78,3.52,0.02c0.82-1.35,0.93-2.89,1.01-4.43
				c0.17-3.27,0.76-6.43,1.68-9.42c0.51-1.64,1.32-3.78,3.82-3.14c2.66,0.68,2.98,3.21,3.12,4.91c0.23,2.95-0.36,5.75,0.47,8.81
				c0.33,1.21,0.64,2.36,2,3.34c1.06,0.76,2.15,1.56,3.44,1.29c1.3-0.27,1.4-1.26,1.07-2.29c-0.83-2.62-1.86-5.25-2.7-7.9
				c-1.21-3.83-5.84-14.15-4.68-14.67c1.43-0.64,2.57,0.17,4.49,1.82c2.25,1.94,6.83,6.2,4.01,6.38c-1.46,0.09-0.33,2.92,0.05,4.29
				c0.84,3.02,1.75,6.02,2.64,8.99c0.31,1.04,0.16,2.39,2.06,2.82c2.21,0.5,1.68-1.13,1.87-2.09c0.28-1.38-0.25-2.92-0.74-4.46
				c-0.96-3.07-1.93-6.18-2.82-9.32c-0.16-0.57-0.66-1.49,0.41-1.47c0.93,0.01,1.64,0.85,2.06,1.43c2.33,3.26,3.73,6.48,4.68,9.62
				c0.58,1.9,1.33,3.78,2.76,5.65c1.43,1.87,3.43,3.25,6.06,4.05c3.68,1.12,4.72,0.44,3.55-2.24c-1.38-3.17-3.24-6.38-5.24-9.66
				c-0.89-1.46-1.8-2.94-2.01-4.39c-0.17-1.21,0.6-1.82,1.95-1.9c1.29-0.08,2.04,1.02,2.72,1.77c1.78,1.94,5.27,3.94,2.77,5.69
				c-0.54,0.38,0.47,1.35,0.84,2.06c1.64,3.22,3.6,6.39,4.07,9.42c0.47,3-1.08,4.56-4.55,4.72c-3.21,0.14-7.7-1.61-10.36-4.12
				c-0.68-0.65-1.3-1.32-2.01-1.96c-0.55-0.49-1.34-1.02-1.73-0.44c-1.45,2.15-4.24,3.64-2.53,7.38c2.33,5.11,2.85,10.18,3.92,15.36
				C165.99,264.48,165.49,266.72,164.28,268.82z"/>
			<path fill="#FFFFFF" d="M278.92,212.19c-0.87-2.92-1.56-5.25-2.26-7.59c-0.18-0.61-1.61-3.89-0.83-5.16
				c0.76-1.22,6.92,4.14,8.04,6.59c0.28,0.62,0.94,1.64,0.31,1.98c-2.79,1.5-0.56,7.3,1.32,10.27c0.67,1.06,1.08,2.17,1.96,2.96
				c5.92,5.33,11.54,12.07,17.4,19.01c2.82,3.34,5.03,7.31,5.22,12.48c-6.6-7.76-13.46-15.31-20.23-22.92
				c-0.7,2.02-0.03,3.43,0.37,4.85c2.14,7.63,4.71,15.36,5.03,23.63c0.1,2.47,0.43,5.07-1.4,7.66c-1.03-4.5-1.91-8.64-2.95-12.78
				c-2.27-9.05-5.17-17.49-7.11-26.31c-0.63-2.87-2.02-5.24-3.97-6.93c-2.87-2.5-5.62-4.94-8.33-7.33
				c-1.72-1.52-3.35-3.12-4.14-5.91c-0.64-2.27-0.26-3.07,1.63-3.07c2.18,0.01,4.05,1.22,5.89,2.53c0.17,0.12,0.37,0.33,0.38,0.56
				C275.52,209.95,275.47,209.89,278.92,212.19z"/>
			<path fill="#FFFFFF" d="M255.61,233.25c-0.39,1.52-0.63,2.56-0.95,3.59c-1.35,4.3-3.58,6.6-6.6,6.88
				c-3.53,0.32-5.87-1.49-6.54-5.32c-0.36-2.06-0.57-4.19-0.96-7.12c-1.68,3.57-1.92,6.31-2.53,8.97c-0.31,1.37-0.47,2.76-1.04,4.03
				c-1.25,2.8-3.91,3.55-6.55,1.94c-2.56-1.56-3.87-3.95-4.67-6.57c-0.97-3.17-1.42-6.45-0.9-10.35c1.81,1.06,1.63,2.3,1.78,3.4
				c0.46,3.55,1.94,6.55,4.07,9.16c0.48,0.59,1.03,1.32,2.14,0.98c1.11-0.34,1.35-1.12,1.58-2.09c1.09-4.67,1.95-9.61,4.16-14.78
				c0.46-1.08,0.87-2.64,2.05-2.8c1.31-0.19,1.53,1.34,1.87,2.43c0.38,1.2,0.52,2.47,0.51,3.8c-0.01,1.47,0.1,2.91,0.33,4.26
				c0.71,4.19,2.31,5.62,4.85,4.67c2.68-1,5.38-6.08,5.07-9.45c-0.35-3.77-1.93-6.73-3.4-9.92c-0.64-1.38-0.76-2.88-0.25-4.63
				c0.49-1.67,1.13-2.35,1.92-0.74c2.06,4.18,4.18,8.05,4.91,12.83c0.78,5.11,4.26,4.14,7.06,2.14c1.57-1.12,1.09-2.64,0.56-3.82
				c-1.3-2.88-2.7-5.67-4.05-8.61c-0.61-1.32-1.35-2.84-1.99-4.24c-0.72-1.57,0.7-2.42,2.42-1.85c1.9,0.62,4.17,1.13,2.88,4.07
				c-0.1,0.3,0.24,0.78,0.38,1.15c0.94,2.4,1.87,4.76,2.8,7.1c1.53,3.83,0.86,8.21-1.74,11.25c-2.09,2.44-5.7,2.71-8.09,0.7
				C256.39,234.07,256.11,233.75,255.61,233.25z"/>
			<path fill="#FFFFFF" d="M299.79,273.33c-0.75-1.5,2.28-1.92,3.64-3.1c2.71-2.35,9.1-5.2,9.38-18.83
				c-1.51-8.28-4.19-16.42-6.42-24.54c-2.53-9.56-5.06-19.22-8.28-28.56c-0.71-2.06-1.37-5.08-0.5-5.37
				c0.84-0.27,11.98,7.91,6.29,8.68c-0.39,0.05,0.22,1.43,0.41,2.16c3.47,13.48,6.91,26.97,10.29,40.47
				c1.32,5.33,1.85,10.46,0.83,15.33c-1.56,7.45-7.08,12.17-14.38,14.14C300.59,273.83,300.08,273.91,299.79,273.33z"/>
			<path fill="#FFFFFF" d="M327.16,258.42c-1.92-4.25-2.71-8.75-3.98-13.25c-4.33-15.68-8.52-31.54-13.89-46.67
				c-0.76-2.16-1.94-5.05-1.19-7.13c0.4-1.11,11.07,8.39,7.93,9.5c-1.8,0.63-1.18,2.07-0.72,3.67c3.82,13.24,7.51,26.46,10.91,39.82
				C327.46,249.54,328.3,254.59,327.16,258.42z"/>
			<path fill="#FFFFFF" d="M140.61,283.74c-0.51-3.38-0.45-6.18,0.19-8.92c0.14-0.6,0.19-1.51,1.04-1.39
				c1.05,0.15,0.94,1.14,0.81,1.81c-0.49,2.58-0.27,5.19,0.37,7.76c0.53,2.16,1.56,3.75,4.41,2.63c1.07-0.42,1.64,0.08,1.68,0.98
				c0.06,1.44-1.02,2.23-2.15,2.99c-1.11,0.74-2.14,0.21-3.02-0.41C141.8,287.68,140.71,285.68,140.61,283.74z"/>
			<path fill="#FFFFFF" d="M332.07,220c-0.81-3.19-1.1-5.23,0.16-6.52c1.2-1.22,2.18,0.09,3.17,1.64c0.38,0.6,0.24,1.16-0.22,1.03
				c-3.52-0.99-1.38,2.92-1.66,4.7c-0.07,0.46,0.35,1.23,0.51,1.85c0.19,0.78,0.18,1.48-0.39,1.64c-0.55,0.15-1.13-0.2-1.66-0.93
				c-1.83-2.53-3.44-5.25-5.83-7.03c-0.63-0.47-1.09-1.57-0.71-2.19c0.53-0.84,1.56-0.33,2.29,0.46
				C329.03,216.03,330.2,217.62,332.07,220z"/>
			<path fill="#FFFFFF" d="M288.26,273.44c-0.59,2.43-1.84,3.74-3.41,4.52c-1.99,0.99-2.96,0.1-3.06-2.67
				c-0.03-0.81,0.41-1.99-0.75-1.85c-0.41,0.05-0.98,0.37-0.88-0.6c0.1-0.95,0.52-1.66,1.28-1.94c0.52-0.19,1.04-0.5,1.34,0.33
				c0.12,0.34,0.21,0.73,0.26,1.11c0.57,4.07,0.7,4.14,3.6,1.95C287.09,273.94,287.44,273.25,288.26,273.44z"/>
			<path fill="#FFFFFF" d="M331.61,238.15c0.17-2.33,1.08-2.94,2.15-3.37c1.67-0.66,3.15-1.68,5.06-1.84
				c0.42-0.04,0.96-0.14,1.38,0.67c0.3,0.58,0.1,1.01-0.18,1.25C337.78,236.7,335.05,237.53,331.61,238.15z"/>
			<path fill="#FFFFFF" d="M138.88,259.27c0.03-2.54,1.54-3.24,2.64-4.15c2.38-1.97,5.32-3.22,8.48-4.15
				c0.58-0.17,1.28-0.41,1.8,0.15c0.56,0.62-0.04,1.08-0.57,1.2C146.48,253.45,142.97,256.18,138.88,259.27z"/>
			<path fill="#FFFFFF" d="M214.06,242.79c1.23,0.95,0.94,1.64,1.14,2.29c0.29,0.94,0.83,1.65,2.37,1.69
				c0.68,0.02,1.74-0.15,1.85,0.57c0.12,0.75-0.87,1.1-1.84,1.12c-1.74,0.04-3.58-0.29-4.58-1.68
				C211.82,245.13,212.33,243.85,214.06,242.79z"/>
			<path fill="#FFFFFF" d="M259.64,242.54c0.62,1.65,0.92,2.95,0.07,3.58c-1.25,0.92-2.23,2.75-3.86,2.62
				c-0.71-0.06-1.17-0.52-1.15-1.38c0.03-1.12,0.88-0.35,1.12-0.75C256.85,244.94,259.07,245.73,259.64,242.54z"/>
			<path fill="#FFFFFF" d="M293.46,213.97c-1.24,0.23-2.21,0.44-2.62-0.62c-0.64-1.66,1.06-1.03,1.46-1.63
				c0.77-1.14,2.03-1.02,2.98-1.63c0.61-0.39,1.15-0.78,1.52,0.16c0.28,0.69,0.62,1.5-0.25,2.02
				C295.44,212.94,294.28,213.5,293.46,213.97z"/>
			<path fill="#FFFFFF" d="M291.52,201.72c-0.83-2.66-2.64-4.31-4.43-5.9c-0.37-0.32-0.79-0.8-0.29-1.44
				c0.61-0.78,1.31-0.47,1.88-0.07C291.04,195.97,291.73,198.62,291.52,201.72z"/>
			<path fill="#FFFFFF" d="M215.17,277.15c-0.3-2.8-0.11-4.83-3.24-6.38c-0.77-0.38-0.93-1.12-0.29-1.55
				c0.62-0.42,1.36-0.16,2.15,0.21C216.85,270.88,217.61,273.95,215.17,277.15z"/>
			<path fill="#FFFFFF" d="M163.76,219.24c-1.33-0.35-2.72-0.65-2.98-1.66c-0.38-1.47,1.12-0.14,1.81-0.03
				c0.87,0.14,1.61,0.03,1.93-0.44c0.57-0.86,1.26-0.93,2.59,0.29c0.29,0.26,0.88,0.42,1.32,0.53c0.75,0.19,0.86-1.72,2.08,0.25
				c0.72,1.16-0.47,1.61-1.58,1.43C167.04,219.32,165.24,219.14,163.76,219.24z"/>
			<path fill="#FFFFFF" d="M362.29,216.31c-1.49-1.22-0.98-2.42-1.34-3.57c-0.54-1.72-1.54-3.22-2.51-4.8
				c-0.49-0.78-0.75-1.58-0.27-1.96c0.34-0.27,0.78,0.15,1.19,0.66C361.36,209.12,362.8,213.77,362.29,216.31z"/>
			<path fill="#FFFFFF" d="M244.06,218.91c2.25,0.41,2.83,2.41,3.33,4.43c0.11,0.42-0.03,0.96-0.41,1.24
				c-0.28,0.2-0.57,0.07-0.71-0.28C245.54,222.56,244.81,220.77,244.06,218.91z"/>
			<path fill="#FFFFFF" d="M360.49,272.12c1.12,0.6,2.24,1.28,2.6,2.55c0.13,0.47,0.01,1.13-0.56,0.72
				c-1.01-0.73-1.96-1.7-2.75-2.66C359.42,272.29,359.79,271.93,360.49,272.12z"/>
			<path fill="#FFFFFF" d="M136.84,214.31c-0.79-0.27-1.24-0.3-1.34-0.47c-0.6-1.01-2.3-1.12-2.44-2.41
				c-0.02-0.19,0.61-0.58,0.79-0.5C135.25,211.53,136.21,212.54,136.84,214.31z"/>
			<path fill="#FFFFFF" d="M283.62,250.75c-6.41,3.28-12.6,5.34-18.81,7.96c-1.18,0.5-2.37,0.68-4.04,0.59c1.24-1.2,2.1-2,2.91-2.88
				c3.59-3.87,7.74-6.62,11.27-10.74c1.52-1.77,2.7-3.67,2.64-6.22c-0.07-2.82-1.67-3.93-3.47-4.61c-1.22-0.46-2.5-0.43-3.82-0.12
				c-4.18,0.97-6.26,5.8-4.11,9.79c0.68,1.27,0.38,1.81-0.58,2.77c-2.01,1.99-4.05,3.96-5.91,6.16c-2.24,2.65-4.7,5.15-5.82,8.86
				c-1.36,4.48-0.44,5.95,3.4,4.84c3.62-1.04,7.08-2.38,10.64-3.67c0.03,1.06-0.59,1.3-0.91,1.8c-2.2,3.38-4,6.89-3.28,11.87
				c0.33,2.31-0.55,3.09-2.13,2.13c-4.46-2.69-7.75-7.26-10.01-12.36c-2.67-6.01-5.48-11.24-8.22-16.33c-0.28-0.52-0.66-1-1.11-1.39
				c-1.09-0.95-1.89-0.55-2.2,0.93c-0.41,1.97-0.01,3.72,0.97,5.37c2.27,3.83,4.5,7.85,6.7,12.27c0.95,1.91,1.95,4.11,1.04,6.61
				c-2.86,7.84-7.44,14.64-15.21,17.85c-1.48,0.61-3.28,0.52-4.49-1.27c-1.19-1.76-0.51-3.29,0.53-4.5c1.57-1.83,3.32-3.51,4.82-5.4
				c8.18-10.31,6.91-15.66,1.93-22.01c-0.43-0.55-1.22-1.25-1.07-1.75c0.92-2.98-1.99-3.16-3.79-4.06c-1.32-0.66-2.05,0.21-2.1,1.35
				c-0.08,1.82,0.67,3.43,1.87,4.96c1.72,2.19,3.28,4.51,5.03,6.8c0.66,0.86,0.91,1.66,0.28,2.57c-2.49,3.57-5.72,6.68-9.34,9.87
				c-0.45-2.12-0.74-3.63-0.37-5.12c0.15-0.61,0.14-1.38-0.64-1.62c-0.96-0.3-1.11,0.53-1.27,1.06c-0.74,2.39-1.84,4.77-1.81,7.58
				c0.01,1.43-0.55,2.26-1.69,2.96c-5.35,3.3-11.03,6.27-16.85,8.98c-1.19,0.55-2.88,0.71-2.89,2.36c1.21,0.62,2.22,0.51,3.16,0.38
				c5.89-0.82,11.67-1.8,16.95-3.54c1.62-0.53,2.19-0.39,3.3,1.15c3.95,5.46,8.31,7.28,13.36,4.86c2.74-1.31,4.83-3.48,6.58-6.06
				c2.88-4.25,5.8-8.42,7.04-14.07c2.32,3.13,4.33,6.36,7.33,7.03c4.15,0.92,8.18,1.45,12.19,1.38c1.71-0.03,3.1-1.11,3.47-3.71
				c0.38-2.73-1.22-3.15-2.5-3.68c-1.78-0.74-3.72-0.77-5.44-1.95c-1.96-1.34-2.21-3-0.38-4.75c5.33-5.12,10.19-10.88,16.2-14.9
				c1.37-0.92,2.28-2.21,2.73-3.94C286.23,251.17,285.18,249.95,283.62,250.75z M268.07,241.75c-0.12-1.15,0.65-1.58,1.62-1.82
				c1.08-0.33,2.85-1.27,3.11,0.66c0.18,1.33-1.71,1.97-2.7,2.54C269.32,243.59,268.21,243.11,268.07,241.75z"/>
			<path fill="#FFFFFF" d="M223.78,256.74c-0.33-0.98-0.95-2.26-2.37-2.21c-1.76,0.05-1.67,1.31-1.35,2.47
				c0.25,0.9,1.4,2.28-0.68,2.43c-1.9,0.14-3.98-0.41-5-2.07c-0.49-0.8-0.53-1.67-1.82-2.58c-0.96,1.19-1.71,2.42-2.83,3.43
				c-2.38,2.15-6.89,1.14-9.1-2.01c-0.66-0.94-1.24-1.97-2.85-1.49c-1.89,0.56-2.08-0.32-2.37-1.35
				c-1.72-6.16-3.44-12.23-5.21-18.59c-0.14-0.5-0.68-1.33-0.02-1.35c3.75-0.06,2.65-1.64,1.42-3.64c-1.04-1.69-6.5-8.86-8.73-9.31
				c-2.41-0.49-0.87,3.95-0.71,4.49c2.59,8.68,5.08,16.68,7.53,24.68c0.56,1.83,1.17,3.68,1.49,5.49c0.19,1.12,0.31,2.46-1.36,2.74
				c-1.74,0.29-3.22-0.96-4.6-1.92c-1.71-1.19-3.28-2.49-5.01-3.68c-2.82-1.93-5.36-2.15-6.98-0.53c-1.24,1.24-1.79,2.83-2.04,4.56
				c-0.41,2.78,1.85,5.24,5.94,6.25c1.66,0.41,3.34,0.52,5.01,0.75c1.5,0.2,3.18-0.14,4.38,1.25c1.29,1.5,0.2,2.5-0.54,3.46
				c-2.37,3.04-6.61,7.57-11.53,8.83c-9.4,2.4-14.93-2.58-17.6-11.24c-0.47-1.51-0.11-3.13-1.98-4.85
				c-0.64,3.08-0.55,6.08,0.06,9.18c1.42,7.29,9.8,12.13,18.04,10.81c5.29-0.85,9.63-2.8,13.16-5.6c3.03-2.4,5.62-5.38,4.69-9.27
				c-0.33-1.36-1.27-2.59,0.39-3.06c0.94-0.26,2.13-0.48,2.65,1.05c1.17,3.38,3.61,7.37,3.7,10.46
				c0.29,10.35-19.21,14.98-28.41,13.7c-7.35-1.02-12.72-5.45-15.56-11.35c-1.23-2.56-1.77-5.12-2.3-7.75
				c-0.21-1.05-1.47-3.45-2-2.96c-2.86,2.7,5.6,21.4,14.25,24.25c4.1,1.35,8.34,2.18,12.45,2.09c8.24-0.18,13.24-2.99,19.18-6.43
				c6.04-3.51,7.05-9.01,4.97-15.31c-1.03-3.12-2.48-6.29-1.69-9.14c5.79,3.48,8.48,3.68,12.92,1.14c1.04-0.59,1.94-0.85,3.02,0.22
				c1.8,1.79,3.74,1.52,5.61,0.98C223.88,262.64,224.96,260.28,223.78,256.74z M178.34,258.13c-1.05-0.18-2.22-0.35-2.43-1.26
				c-0.26-1.06,0.8-1.39,2.09-1.18c1.27,0.21,2.64,0.99,2.7,1.9C180.75,258.45,179.27,258.17,178.34,258.13z"/>
			<path fill="#FFFFFF" d="M215.54,224.6c-2.1-0.35-2.64,1.03-2.95,2.41c-0.34,1.48-0.17,2.98,1.49,4.14c1.62,1.13,1,1.65,0.17,2.36
				c-2.9,2.47-6.37,4.31-10.21,5.79c-1.05,0.4-2.53,0.54-2.63,1.69c1.25,0.54,2.08,0.25,2.89,0.05c5.78-1.45,10.66-3.77,13.64-7.96
				c1.03-1.45,1.49-3.05,1.2-4.96C218.86,226.29,217.69,224.96,215.54,224.6z M217.21,228.27c-0.12,0.58-0.21,1.32-1.25,1.35
				c-0.73-0.26-1.55-0.63-1.47-1.28c0.08-0.7,0.44-1.5,1.53-1.42C216.81,226.99,217.34,227.67,217.21,228.27z"/>
		</g>
		<g>
			<path fill="#FFFFFF" d="M354.15,301.65c-4.39-1.06-8.75-1.8-13.15-2.22c-1.81-0.17-3.06-0.51-2.09-2.55
				c0.72-1.54-0.72-2.76-1.85-3.95c-0.5-0.53-1.37-1.3-1.84-0.7c-0.83,1.04-1.74,2.53-0.69,4.08c2.06,3.03,0.41,2.76-1.58,2.72
				c-0.88-0.02-1.77-0.02-2.66-0.02c-25.77,1.98-40.73,12.43-62.8,23.59c-27.58,13.95-53.14,6.57-81.94,0.16
				c0.09,0.05,0.19,0.1,0.27,0.15c11.62,6.91,24.6,13.05,37.84,14.68c16.42,2.02,30.97,0.58,46.16-8.05
				c21.8-13.15,38.38-22.21,64.42-24.08c3-0.05,2.95-0.03,2.58,2.74c-0.25,1.85,0.84,3.54,2.23,4.43c1.47,0.94,1.99-0.87,2.3-1.73
				c0.2-0.54,0.73-1.2,1.46-1.16c2.07,0.11,3.41-0.17,5.41,1.45c0.79,0.64,1.35,0.24,1.97-0.07c1.82-0.92,5.89,0.41,7.88,2.38
				c1.7,1.68,3.46,2.18,5.12,2.12c1.7-0.07,2.19-1.19,1.95-2.88C364.48,308.04,359.7,302.99,354.15,301.65z M356.82,309.32
				c-4.97-1.08-7.43-1.45-12.42-1.88c-0.84-0.07-1.72-0.51-2.38-1.21c-0.33-0.35-0.5-0.53-0.83-0.88c-0.55-0.58-0.32-1.37,0.38-1.32
				c5,0.4,7.46,0.76,12.41,1.78c0.82,0.17,1.67,0.69,2.33,1.4c0.35,0.39,0.53,0.58,0.88,0.96
				C357.74,308.79,357.52,309.48,356.82,309.32z"/>
		</g>
	</g>
</g>
</svg>
