<?xml version="1.0" encoding="utf-8"?>
<!-- Generator: Adobe Illustrator 26.0.1, SVG Export Plug-In . SVG Version: 6.00 Build 0)  -->
<svg version="1.1" id="Layer_1" xmlns="http://www.w3.org/2000/svg" xmlns:xlink="http://www.w3.org/1999/xlink" x="0px" y="0px"
	 viewBox="0 0 473.86 505.67" enable-background="new 0 0 473.86 505.67" xml:space="preserve">
<g display="none">
	<g display="inline">
		<path fill="#282A2B" d="M439.78,372.53c-124.27-69.94-248.53,70.27-372.8,0.11c0-77.99,0-155.99,0-233.98
			c124.27,70.16,248.53-70.05,372.8-0.11C439.78,216.54,439.78,294.54,439.78,372.53z"/>
		<g>
			<path fill="#F9ED2D" d="M439.78,372.53c-124.27-69.94-248.53,70.27-372.8,0.11c0-40.3,0-80.58,0-120.87
				c124.27,70.16,248.53-70.05,372.8-0.11C439.78,291.95,439.78,332.23,439.78,372.53z"/>
		</g>
		<g>
			<path fill="#DD3330" d="M66.97,294.33c124.34,70.19,248.66-70.19,373,0c0-26.24,0-52.49,0-78.73
				c-124.34-70.19-248.66,70.19-373,0C66.97,241.84,66.97,268.09,66.97,294.33z"/>
		</g>
	</g>
	<g display="inline">
		<linearGradient id="SVGID_1_" gradientUnits="userSpaceOnUse" x1="66.7777" y1="257.4758" x2="439.6653" y2="257.4758">
			<stop  offset="0" style="stop-color:#FFFFFF"/>
			<stop  offset="0.1324" style="stop-color:#F3F3F2"/>
			<stop  offset="0.3417" style="stop-color:#DDDDDD"/>
			<stop  offset="0.5399" style="stop-color:#C4C5C6"/>
			<stop  offset="0.5735" style="stop-color:#C2C2C3"/>
			<stop  offset="0.6933" style="stop-color:#BFBFC0"/>
			<stop  offset="0.9141" style="stop-color:#FFFFFF"/>
		</linearGradient>
		<path fill="url(#SVGID_1_)" d="M439.67,217.42v78.75c0,0-0.11,0-0.11-0.11v78.31c-124.3-69.9-248.61,70.23-372.78,0.11V140.46
			c124.17,70.24,248.48-70,372.78-0.11v76.96C439.56,217.42,439.67,217.42,439.67,217.42z"/>
		
			<linearGradient id="SVGID_00000106850286651224612420000001864112374135078582_" gradientUnits="userSpaceOnUse" x1="66.7777" y1="257.4758" x2="439.6653" y2="257.4758">
			<stop  offset="0" style="stop-color:#FFFFFF"/>
			<stop  offset="0.1324" style="stop-color:#F3F3F2"/>
			<stop  offset="0.3417" style="stop-color:#DDDDDD"/>
			<stop  offset="0.5399" style="stop-color:#C4C5C6"/>
			<stop  offset="0.5735" style="stop-color:#C2C2C3"/>
			<stop  offset="0.6933" style="stop-color:#BFBFC0"/>
			<stop  offset="0.9141" style="stop-color:#FFFFFF"/>
		</linearGradient>
		<path opacity="0.25" fill="url(#SVGID_00000106850286651224612420000001864112374135078582_)" d="M439.67,217.42v78.75
			c0,0-0.11,0-0.11-0.11v78.31c-124.3-69.9-248.61,70.23-372.78,0.11V140.46c124.17,70.24,248.48-70,372.78-0.11v76.96
			C439.56,217.42,439.67,217.42,439.67,217.42z"/>
	</g>
</g>
<g>
	<g>
		<g>
			<path fill="#2F4794" d="M443.83,139.63c0,76.97,0,153.95,0,230.91c-0.01,0.01-0.03,0.02-0.04,0.02
				c-122.78-69.12-245.54,69.33-368.32,0.31c0-76.99,0-153.97,0-230.95C198.26,208.94,321.05,70.45,443.83,139.63z"/>
		</g>
		<g>
			<g>
				<path fill="#FCF5F9" d="M443.83,346.51c0,8.01,0,16.02,0,24.04c-0.01,0.01-0.03,0.02-0.04,0.02
					c-12.78-7.19-25.56-12.14-38.34-15.3c-37.68-32.97-75.37-50.44-113.05-64.42c-3.77-1.41-7.54-2.78-11.31-4.12
					c-4.45-1.59-8.9-3.15-13.35-4.68c-1.49-0.52-2.99-1.04-4.49-1.56c-4.53-1.55-9.05-3.1-13.58-4.66c-1.69-0.61-3.37-1.2-5.06-1.81
					c-1.42-0.49-2.84-0.97-4.26-1.46c-2.84-1-5.7-2.01-8.54-3.05c-0.92-0.34-1.85-0.68-2.77-1.04c-1.38-0.5-2.78-1.01-4.16-1.51
					c-13.38-5.03-26.76-10.52-40.15-17.01c-6.02-2.91-12.03-6.02-18.06-9.39c-30.39-17.01-60.8-40.43-91.19-76.56
					c0-8.02,0-16.06,0-24.08c0.1-0.1,0.21-0.19,0.3-0.28c0.25,0.28,0.49,0.57,0.74,0.85c12.43,6.88,24.86,11.63,37.29,14.69
					c38.41,33.57,76.82,51.06,115.23,65.18c3.77,1.4,7.54,2.76,11.31,4.09c1.02,0.36,2.02,0.71,3.04,1.06
					c6.02,2.11,12.05,4.17,18.07,6.24c0.59,0.22,1.2,0.43,1.79,0.64c2.31,0.8,4.62,1.6,6.93,2.4c3.63,1.27,7.28,2.53,10.91,3.83
					c0.62,0.23,1.24,0.44,1.86,0.67c3.15,1.13,6.3,2.28,9.45,3.45c3.08,1.14,6.15,2.3,9.23,3.49c8.27,3.21,16.53,6.63,24.8,10.39
					c6.02,2.74,12.03,5.66,18.06,8.8C377.61,282.78,410.71,307.09,443.83,346.51z"/>
			</g>
			<g>
				<path fill="#EE2D28" d="M443.88,369.91c0.02,0.29,0.04,0.57,0.07,0.87c-8.21-4.67-16.42-8.42-24.63-11.36
					c-42.31-41.47-84.61-61.56-126.92-77.25c-3.6-1.35-7.21-2.66-10.81-3.96c-0.16-0.05-0.34-0.11-0.5-0.16
					c-3.63-1.3-7.28-2.56-10.91-3.83c-2.21-0.77-4.4-1.55-6.61-2.31c-4.01-1.38-8.03-2.77-12.05-4.16
					c-3.73-1.28-7.45-2.55-11.18-3.86c-0.53-0.18-1.05-0.38-1.58-0.57c-2.32-0.83-4.64-1.68-6.96-2.53
					c-0.92-0.32-1.85-0.65-2.77-0.98c-10.15-3.73-20.31-7.71-30.46-12.15c-6-2.63-12.01-5.43-18.01-8.43
					c-35.03-17.52-70.05-42.29-105.09-83.94c0-5.29,0-10.57,0-15.86c0.1,0.08,0.21,0.15,0.3,0.24c0.25,0.28,0.49,0.57,0.74,0.85
					c43.2,50.95,86.38,76.37,129.58,94.32c6,2.51,12.01,4.87,18.01,7.12c1.64,0.62,3.29,1.22,4.93,1.82
					c3.77,1.4,7.54,2.76,11.31,4.1c1.42,0.5,2.84,1,4.26,1.49c2.3,0.81,4.62,1.61,6.92,2.41c4.26,1.48,8.51,2.94,12.77,4.41
					c5.6,1.92,11.19,3.85,16.79,5.84c0.62,0.23,1.24,0.46,1.86,0.68c2.04,0.74,4.1,1.47,6.14,2.22c1.1,0.41,2.21,0.82,3.31,1.23
					c4.91,1.82,9.81,3.7,14.72,5.67C352.7,290.03,398.29,315.66,443.88,369.91z"/>
			</g>
		</g>
		<g>
			<g>
				<path fill="#FCF5F9" d="M443.83,144.2c0,8.01,0,16.02,0,24.03c-27.99,1.77-56,14.35-83.99,32.78
					c-6.01,3.97-12.01,8.2-18.03,12.65c-13.4,9.94-26.79,20.98-40.19,32.57c-3.08,2.66-6.15,5.34-9.23,8.04
					c-3.15,2.78-6.3,5.59-9.45,8.41c-0.62,0.56-1.24,1.11-1.86,1.68c-1.42,1.28-2.84,2.55-4.26,3.83c-2.22,2-4.43,4.01-6.65,6.02
					c-2.31,2.09-4.62,4.18-6.93,6.27c-1.49,1.36-2.99,2.72-4.48,4.08c-6.14,5.59-12.28,11.17-18.42,16.69
					c-3.77,3.41-7.54,6.78-11.31,10.12c-36.02,31.91-72.02,60.85-108.04,76.37c-15.17-2.98-30.35-8.34-45.52-16.87
					c0-6.52,0-13.03,0-19.55c35.53-2.3,71.05-21.97,106.58-48.96c6-4.56,12.01-9.34,18.01-14.28c8.27-6.78,16.53-13.86,24.8-21.13
					c1.38-1.22,2.78-2.45,4.16-3.7c0.92-0.82,1.85-1.65,2.77-2.49c2.84-2.52,5.7-5.07,8.54-7.63c1.42-1.27,2.84-2.53,4.26-3.8
					c6.22-5.62,12.42-11.29,18.64-16.95c0.61-0.55,1.21-1.1,1.82-1.65c5.34-4.85,10.68-9.69,16.02-14.48
					c0.68-0.62,1.35-1.22,2.03-1.83c3.09-2.77,6.18-5.54,9.28-8.26c40.1-35.39,80.2-66.84,120.3-79.88
					c9.42,2.84,18.82,6.69,28.24,11.75C441.9,140.08,442.87,142.14,443.83,144.2z"/>
			</g>
			<g>
				<path fill="#EE2D28" d="M442.88,144.85c-40.12,2.91-80.26,27.87-120.39,60.41c-6.02,4.88-12.03,9.93-18.06,15.09
					c-4.01,3.46-8.03,6.96-12.05,10.52c-3.15,2.78-6.3,5.59-9.45,8.41c-0.62,0.56-1.24,1.11-1.86,1.68
					c-5.6,5.03-11.19,10.11-16.79,15.2c-4.26,3.86-8.51,7.72-12.77,11.57c-2.3,2.1-4.62,4.2-6.92,6.28
					c-1.42,1.29-2.84,2.56-4.26,3.84c-0.28,0.26-0.57,0.52-0.85,0.78c-3.48,3.14-6.97,6.26-10.46,9.35
					c-2.53,2.24-5.07,4.47-7.6,6.66c-45.89,40.09-91.79,74.17-137.68,80.57c-2.76-1.35-5.53-2.8-8.28-4.35c0-3.6,0-7.21,0-10.81
					c40.15-2.62,80.28-27.42,120.43-59.88c6.02-4.87,12.03-9.9,18.06-15.06c5.03-4.31,10.04-8.71,15.07-13.17
					c0.92-0.81,1.85-1.62,2.77-2.44c2.33-2.05,4.64-4.13,6.96-6.21c0.53-0.49,1.05-0.97,1.58-1.47c3.73-3.34,7.45-6.7,11.18-10.08
					c6.22-5.64,12.43-11.32,18.65-16.97c2.91-2.65,5.83-5.29,8.74-7.9c0.72-0.65,1.45-1.3,2.17-1.95
					c3.77-3.39,7.54-6.76,11.31-10.09c1.52-1.34,3.05-2.68,4.57-4.01c43.17-37.77,86.35-70.34,129.52-79.65
					c4.27,1.76,8.55,3.75,12.82,5.99c1.5,0.78,3.02,1.6,4.52,2.44c0.01,1.71,0.03,3.41,0.04,5.1
					C443.54,144.77,443.22,144.81,442.88,144.85z"/>
			</g>
		</g>
		<g>
			<path fill="#FFFFFF" d="M444.02,284.33c-122.96-69.48-245.91,69.48-368.87,0c0-21.12,0-42.24,0-63.36
				c122.96,69.48,245.91-69.48,368.87,0C444.02,242.09,444.02,263.22,444.02,284.33z"/>
		</g>
		<g>
			<path fill="#EE2D28" d="M444.02,273.02c-122.96-69.48-245.91,69.48-368.87,0c0-13.58,0-27.16,0-40.74
				c122.96,69.48,245.91-69.48,368.87,0C444.02,245.86,444.02,259.44,444.02,273.02z"/>
		</g>
		<g>
			<path fill="#CD202D" d="M281.08,133.75c0,76.98,0,153.97,0,230.95c-13.58,3.68-27.16,7.66-40.74,11.36c0-76.98,0-153.97,0-230.95
				C253.92,141.4,267.5,137.43,281.08,133.75z"/>
		</g>
		<g>
			<g>
				<path fill="#FFFFFF" d="M280.99,278.37c3.77-1.02,7.55-2.02,11.32-2.98c0,28.78,0,57.58,0,86.36
					c-21.12,5.41-42.25,11.89-63.36,17.36c0-28.78,0-57.57,0-86.36c3.77-0.97,7.54-1.98,11.31-3.02c0-21.12,0-42.23,0-63.36
					c-3.77,1.04-7.54,2.04-11.31,3.02c0-27.08,0-54.15,0-81.24c21.12-5.47,42.24-11.96,63.36-17.36c0,27.07,0,54.15,0,81.23
					c-3.77,0.96-7.55,1.97-11.32,2.98C280.99,236.13,280.99,257.25,280.99,278.37z"/>
			</g>
			<g>
				<path fill="#EE2D28" d="M281.2,133.72c0,76.99,0,153.97,0,230.95c-13.72,3.72-27.44,7.73-41.16,11.48c0-76.98,0-153.97,0-230.95
					C253.76,141.45,267.48,137.44,281.2,133.72z"/>
			</g>
		</g>
	</g>
</g>
</svg>
