<?xml version="1.0" encoding="utf-8"?>
<!-- Generator: Adobe Illustrator 26.0.1, SVG Export Plug-In . SVG Version: 6.00 Build 0)  -->
<svg version="1.1" id="Layer_1" xmlns="http://www.w3.org/2000/svg" xmlns:xlink="http://www.w3.org/1999/xlink" x="0px" y="0px"
	 viewBox="0 0 473.86 505.67" enable-background="new 0 0 473.86 505.67" xml:space="preserve">
<g display="none">
	<g display="inline">
		<path fill="#282A2B" d="M439.78,372.53c-124.27-69.94-248.53,70.27-372.8,0.11c0-77.99,0-155.99,0-233.98
			c124.27,70.16,248.53-70.05,372.8-0.11C439.78,216.54,439.78,294.54,439.78,372.53z"/>
		<g>
			<path fill="#F9ED2D" d="M439.78,372.53c-124.27-69.94-248.53,70.27-372.8,0.11c0-40.3,0-80.58,0-120.87
				c124.27,70.16,248.53-70.05,372.8-0.11C439.78,291.95,439.78,332.23,439.78,372.53z"/>
		</g>
		<g>
			<path fill="#DD3330" d="M66.97,294.33c124.34,70.19,248.66-70.19,373,0c0-26.24,0-52.49,0-78.73
				c-124.34-70.19-248.66,70.19-373,0C66.97,241.84,66.97,268.09,66.97,294.33z"/>
		</g>
	</g>
	<g display="inline">
		<linearGradient id="SVGID_1_" gradientUnits="userSpaceOnUse" x1="66.7777" y1="257.4758" x2="439.6653" y2="257.4758">
			<stop  offset="0" style="stop-color:#FFFFFF"/>
			<stop  offset="0.1324" style="stop-color:#F3F3F2"/>
			<stop  offset="0.3417" style="stop-color:#DDDDDD"/>
			<stop  offset="0.5399" style="stop-color:#C4C5C6"/>
			<stop  offset="0.5735" style="stop-color:#C2C2C3"/>
			<stop  offset="0.6933" style="stop-color:#BFBFC0"/>
			<stop  offset="0.9141" style="stop-color:#FFFFFF"/>
		</linearGradient>
		<path fill="url(#SVGID_1_)" d="M439.67,217.42v78.75c0,0-0.11,0-0.11-0.11v78.31c-124.3-69.9-248.61,70.23-372.78,0.11V140.46
			c124.17,70.24,248.48-70,372.78-0.11v76.96C439.56,217.42,439.67,217.42,439.67,217.42z"/>
		
			<linearGradient id="SVGID_00000165198206662806517730000009661172400215860360_" gradientUnits="userSpaceOnUse" x1="66.7777" y1="257.4758" x2="439.6653" y2="257.4758">
			<stop  offset="0" style="stop-color:#FFFFFF"/>
			<stop  offset="0.1324" style="stop-color:#F3F3F2"/>
			<stop  offset="0.3417" style="stop-color:#DDDDDD"/>
			<stop  offset="0.5399" style="stop-color:#C4C5C6"/>
			<stop  offset="0.5735" style="stop-color:#C2C2C3"/>
			<stop  offset="0.6933" style="stop-color:#BFBFC0"/>
			<stop  offset="0.9141" style="stop-color:#FFFFFF"/>
		</linearGradient>
		<path opacity="0.25" fill="url(#SVGID_00000165198206662806517730000009661172400215860360_)" d="M439.67,217.42v78.75
			c0,0-0.11,0-0.11-0.11v78.31c-124.3-69.9-248.61,70.23-372.78,0.11V140.46c124.17,70.24,248.48-70,372.78-0.11v76.96
			C439.56,217.42,439.67,217.42,439.67,217.42z"/>
	</g>
</g>
<g>
	<g>
		<g>
			<path fill="#E53230" d="M439.36,370.65c-124.4-70.27-248.81,70.27-373.21,0c0-78.08,0-156.16,0-234.24
				c124.4,70.27,248.81-70.27,373.21,0C439.36,214.48,439.36,292.57,439.36,370.65z"/>
		</g>
		<g>
			<path fill="#FFFFFF" d="M245.75,229.83c11.36,13.96,22.74,27.86,34.1,42.01c-19.08-2.17-38.16-3.62-57.24-5.87
				c19.68-10.43,39.36-21.72,59.04-32.18c-12.87,19.21-25.74,38.76-38.61,58.2C243.94,271.27,244.85,250.55,245.75,229.83z"/>
			<path fill="#FFFFFF" d="M230.74,294.85c-10.67,21.17-25.84,33.16-48.68,36.98c-34.25,6.08-61.97-26.18-61.97-60.5
				c0-34.11,27.72-57.34,61.97-63.42c25.83-4.31,45.24,2.51,54.5,22.56c-8.61-13.15-22.41-16.47-41.32-12.59
				c-27.89,5.94-50.45,28.26-50.45,56.05c0,27.92,22.56,50.8,50.45,44.86C211.7,315.4,221.55,309.52,230.74,294.85z"/>
		</g>
	</g>
</g>
</svg>
